<svg width="382" height="390" viewBox="0 0 382 390" fill="none" xmlns="http://www.w3.org/2000/svg">
<rect x="96.4211" y="223.62" width="188" height="143" fill="#1E1E1E"/>
<rect x="96.4211" y="20.6205" width="188" height="143" fill="#1E1E1E"/>
<path d="M192.973 190.96C192.791 190.915 192.107 190.823 190.916 190.72C189.729 190.617 188.843 190.775 188.407 191.016C188.213 191.122 188.198 191.369 188.232 191.645C188.308 192.275 188.7 192.932 189.113 193.527C189.484 194.063 189.895 194.312 190.238 194.358C190.626 194.41 191.156 193.926 191.729 193.227C192.264 192.575 192.399 191.745 192.433 191.023C192.45 190.688 192.355 190.415 192.24 190.263C192.125 190.111 191.966 190.088 191.714 190.19C191.084 190.444 190.382 191.276 189.763 192.273C189.27 193.065 189.482 193.805 189.7 194.172C189.873 194.465 190.444 194.359 191.097 194.199C191.894 194.004 192.58 193.42 193.073 192.756C193.322 192.421 193.362 191.956 193.306 191.563C193.251 191.17 193.046 190.829 192.804 190.585C192.563 190.342 192.29 190.205 192.002 190.18C191.713 190.156 191.418 190.246 191.106 190.509C190.39 191.114 190.035 192.149 189.909 193.157C189.782 194.16 190.398 195.021 191.062 195.594C191.66 196.11 192.715 196.035 193.906 195.887C194.536 195.808 195.187 195.534 195.629 195.258C196.071 194.981 196.275 194.663 196.313 194.317C196.35 193.972 196.213 193.608 195.825 193.136C195.436 192.665 194.8 192.097 194.188 191.668C193.064 190.879 191.945 190.662 191.006 190.787C190.007 190.919 189.462 192.035 189.141 192.962C188.826 193.87 189.137 194.677 189.503 195.136C189.837 195.553 190.741 195.461 191.862 195.256C192.472 195.144 193.121 194.823 193.687 194.489C194.254 194.156 194.709 193.769 194.966 193.411C195.223 193.053 195.268 192.735 195.144 192.411C194.869 191.696 193.942 191.306 192.946 191.122C191.9 190.929 190.752 191.394 189.663 191.909C188.615 192.405 188.084 193.23 187.98 193.928C187.926 194.283 188.216 194.649 188.537 194.939C189.207 195.542 190.349 195.667 191.575 195.622C192.798 195.577 193.682 194.913 194.118 194.271C194.317 193.98 194.236 193.63 194.02 193.227C193.804 192.825 193.395 192.347 192.854 191.863C192.314 191.378 191.655 190.901 190.951 190.541C190.248 190.182 189.521 189.954 188.68 189.871C187.839 189.788 186.907 189.857 186.177 190.119C185.447 190.381 184.947 190.836 184.678 191.354C184.409 191.873 184.386 192.441 184.613 193.052C184.84 193.663 185.318 194.3 185.882 194.832C186.446 195.364 187.082 195.774 187.842 196.03C188.602 196.286 189.466 196.377 190.343 196.344C191.219 196.312 192.083 196.153 192.812 195.855C193.541 195.557 194.11 195.125 194.391 194.709C194.673 194.293 194.65 193.907 194.456 193.503C194.263 193.1 193.899 192.69 193.416 192.275C192.39 191.392 191.279 190.915 190.419 190.777C190.019 190.713 189.674 190.821 189.339 191.038C188.606 191.513 188.244 192.562 188.163 193.684C188.084 194.779 188.906 195.595 189.672 196.1C190.068 196.361 190.598 196.423 191.231 196.413C191.863 196.403 192.614 196.267 193.284 195.969C193.955 195.672 194.523 195.217 194.895 194.756C195.268 194.294 195.427 193.839 195.452 193.389C195.477 192.939 195.363 192.507 195.1 192.103C194.544 191.247 193.438 190.801 192.293 190.594C191.723 190.491 191.148 190.614 190.582 190.797C189.431 191.169 188.591 192.012 188.097 192.894C187.645 193.702 188.08 194.653 188.572 195.375C189.074 196.111 190.189 196.378 191.55 196.493C192.318 196.558 193.253 196.381 193.96 196.141C194.668 195.9 195.122 195.537 195.413 195.167C195.704 194.798 195.818 194.435 195.797 194.02C195.776 193.605 195.617 193.151 195.262 192.689C194.907 192.228 194.362 191.773 193.683 191.391C193.004 191.009 192.209 190.714 191.39 190.561C190.571 190.409 189.752 190.409 189.069 190.534C188.386 190.659 187.863 190.909 187.469 191.311C187.075 191.712 186.825 192.258 186.775 192.812C186.726 193.365 186.885 193.911 187.195 194.419C187.504 194.928 187.958 195.382 188.431 195.753C188.904 196.124 189.382 196.396 190.014 196.605C190.646 196.814 191.419 196.95 192.079 196.964C193.265 196.988 194.163 196.383 194.783 195.638C195.334 194.976 195.27 194.041 195.019 193.194C194.887 192.749 194.45 192.391 193.956 192.067C193.462 191.743 192.848 191.493 192.168 191.353C191.488 191.213 190.761 191.19 190.102 191.315C189.443 191.44 188.875 191.712 188.411 192.103C187.494 192.876 187.233 194.077 187.312 195.188C187.39 196.279 188.194 197.042 189.051 197.569C189.551 197.876 190.34 197.96 191.136 197.974C191.932 197.988 192.75 197.851 193.433 197.599C194.703 197.13 195.382 196.268 195.703 195.512C195.872 195.116 195.843 194.621 195.73 194.181C195.504 193.308 194.654 192.617 193.67 192.043C193.17 191.752 192.549 191.697 191.938 191.707C191.326 191.716 190.712 191.853 190.146 192.128C189.58 192.403 189.08 192.812 188.731 193.307C188.383 193.802 188.201 194.37 188.187 194.901C188.173 195.433 188.332 195.91 188.607 196.315C188.882 196.72 189.269 197.038 189.82 197.27C190.371 197.503 191.076 197.639 191.86 197.641C192.643 197.643 193.484 197.507 194.202 197.209C194.919 196.912 195.487 196.457 195.882 195.95C196.278 195.443 196.482 194.897 196.519 194.298C196.556 193.699 196.42 193.062 196.088 192.496C195.757 191.929 195.234 191.452 194.703 191.092C193.705 190.416 192.656 190.226 191.717 190.282C190.674 190.344 189.786 191.323 189.097 192.205C188.779 192.613 188.773 193.109 188.84 193.514C188.907 193.919 189.112 194.26 189.399 194.526C189.978 195.064 191.016 195.185 192.263 195.105C192.927 195.063 193.625 194.776 194.215 194.5C194.805 194.224 195.26 193.906 195.562 193.548C195.865 193.191 196.001 192.805 195.981 192.413C195.938 191.609 195.136 190.917 194.14 190.367C193.625 190.082 192.986 189.998 192.294 189.951C191.603 189.903 190.853 189.949 190.148 190.075C188.789 190.317 187.742 190.911 187.088 191.518C186.798 191.787 186.775 192.148 186.854 192.437C187.016 193.035 187.826 193.392 188.832 193.668C189.398 193.822 190.112 193.852 190.85 193.807C191.588 193.763 192.338 193.604 192.963 193.385C193.588 193.167 194.066 192.894 194.38 192.583C194.694 192.272 194.83 191.931 194.821 191.574C194.812 191.216 194.653 190.853 194.332 190.518C193.629 189.783 192.383 189.469 191.157 189.353C190.134 189.257 189.121 189.946 188.124 190.668C187.268 191.287 186.912 192.013 186.877 192.552C186.861 192.797 187.046 192.977 187.253 193.105C187.694 193.377 188.582 193.371 189.852 193.269C190.559 193.212 191.372 192.962 192.033 192.697C192.693 192.433 193.17 192.115 193.507 191.735C193.844 191.355 194.026 190.923 194.04 190.541C194.054 190.16 193.895 189.841 193.574 189.552C193.254 189.264 192.776 189.013 192.189 188.862C191.602 188.71 190.92 188.665 190.274 188.744C189.627 188.823 189.036 189.027 188.447 189.303C187.26 189.86 186.409 190.635 185.95 191.322C185.749 191.624 185.764 191.919 185.854 192.15C186.04 192.623 186.792 192.91 187.901 193.197C188.568 193.369 189.488 193.415 190.331 193.405C191.175 193.395 191.925 193.281 192.47 193.087C193.016 192.892 193.334 192.619 193.498 192.296C193.662 191.974 193.662 191.61 193.446 191.23C193.23 190.849 192.798 190.463 192.269 190.139C191.739 189.815 191.126 189.565 190.457 189.424C189.789 189.284 189.084 189.261 188.403 189.386C187.722 189.511 187.085 189.784 186.609 190.151C186.134 190.519 185.838 190.974 185.675 191.492C185.343 192.544 185.715 193.642 186.264 194.501C186.526 194.911 186.905 195.156 187.421 195.377C187.938 195.597 188.62 195.756 189.448 195.826C190.277 195.897 191.232 195.874 191.996 195.726C192.761 195.578 193.307 195.305 193.69 194.983C194.073 194.66 194.278 194.297 194.27 193.882C194.261 193.467 194.034 193.013 193.712 192.642C193.074 191.907 191.946 191.604 190.641 191.512C189.951 191.463 189.2 191.692 188.541 191.978C187.881 192.265 187.336 192.674 186.941 193.135C186.546 193.596 186.319 194.096 186.259 194.592C186.199 195.088 186.312 195.566 186.53 195.959C186.952 196.723 187.962 197.18 189.278 197.593C190.012 197.823 190.934 197.915 191.687 197.917C192.439 197.919 193.008 197.782 193.414 197.564C193.82 197.346 194.048 197.051 194.097 196.717C194.146 196.383 194.009 196.019 193.723 195.672C193.437 195.326 193.005 195.008 192.475 194.753C191.946 194.498 191.332 194.316 190.607 194.268C189.882 194.22 189.063 194.311 188.403 194.528C187.743 194.745 187.266 195.086 186.929 195.466C186.592 195.847 186.41 196.256 186.407 196.637C186.404 197.018 186.586 197.359 186.862 197.637C187.426 198.206 188.535 198.376 189.909 198.399C190.624 198.412 191.374 198.287 192.078 198.092C192.783 197.897 193.42 197.602 193.816 197.313C194.212 197.025 194.348 196.752 194.327 196.486C194.307 196.221 194.125 195.971 193.827 195.751C193.172 195.268 192.084 195.207 190.915 195.424C190.344 195.53 189.883 195.891 189.58 196.213C189.278 196.536 189.164 196.877 189.162 197.178C189.161 197.479 189.274 197.729 189.458 197.903C189.826 198.253 190.513 198.307 191.348 198.353C192.387 198.411 193.405 198.125 194.139 197.862C194.447 197.751 194.6 197.621 194.682 197.517C194.764 197.413 194.764 197.322 194.73 197.23C194.696 197.138 194.628 197.047 194.502 197C194.21 196.891 193.779 197.067 193.355 197.341C192.927 197.618 192.813 198.054 192.846 198.283C192.862 198.391 193.039 198.422 193.235 198.411C193.686 198.386 194.165 198.103 194.543 197.782C194.712 197.639 194.763 197.461 194.73 197.277C194.655 196.86 194.056 196.45 193.266 196.037C192.416 195.593 191.416 195.575 190.546 195.7C190.116 195.762 189.766 196.075 189.522 196.397C189.278 196.719 189.164 197.106 189.174 197.441C189.183 197.777 189.32 198.05 189.526 198.258C189.942 198.678 190.832 198.789 191.932 198.79C193.046 198.791 194.025 198.059 194.714 197.235C195.282 196.554 194.995 195.557 194.675 194.755C194.366 193.98 193.619 193.716 193.126 193.647C192.886 193.613 192.656 193.714 192.437 193.874C191.96 194.222 191.757 194.838 191.756 195.365C191.756 195.601 191.937 195.756 192.098 195.849C192.412 196.031 193.015 195.92 193.817 195.703C194.711 195.461 195.268 194.82 195.475 194.271C195.669 193.756 195.202 193.213 194.87 192.834C194.729 192.674 194.606 192.615 194.49 192.591C193.886 192.466 193.183 193.597 193.076 193.956C193.385 193.923 193.798 193.648 194.051 193.43C194.166 193.348 194.257 193.326 194.351 193.302" stroke="#1E1E1E" stroke-width="2" stroke-linecap="round"/>
<path d="M219.769 192.338C219.563 192.247 219.196 192.017 218.99 192.005C217.772 191.933 217.197 194.288 217.208 194.54C217.213 194.639 217.333 194.656 217.494 194.645C217.885 194.618 218.32 194.428 218.687 194.211C218.977 194.038 219.125 193.763 219.194 193.465C219.226 193.328 219.218 193.213 219.172 193.097C219.074 192.849 218.806 192.66 218.508 192.511C218.355 192.434 218.165 192.43 217.969 192.487C217.542 192.61 217.199 193.093 216.935 193.665C216.669 194.243 216.783 194.793 216.886 195.091C216.929 195.214 217.012 195.253 217.093 195.265C217.263 195.29 217.653 195.072 218.192 194.717C218.693 194.387 218.85 193.855 218.896 193.454C218.94 193.076 218.713 192.775 218.519 192.592C218.347 192.429 218.048 192.498 217.773 192.612C217.43 192.755 217.312 193.254 217.278 193.701C217.244 194.131 217.518 194.404 217.712 194.518C218.159 194.781 219.143 194.2 220.03 193.512C220.219 193.365 220.25 193.145 220.239 192.995C220.22 192.712 219.862 192.5 219.507 192.327C219.343 192.248 219.175 192.269 219.013 192.314C218.678 192.409 218.415 192.749 218.232 193.161C218.06 193.547 218.161 193.898 218.264 194.082C218.308 194.16 218.39 194.174 218.493 194.14C218.75 194.057 218.964 193.763 219.045 193.556C218.921 193.576 218.713 193.76 218.564 193.967C218.506 194.059 218.483 194.127 218.46 194.335" stroke="#1E1E1E" stroke-width="2" stroke-linecap="round"/>
<path d="M18.5014 190.134C18.5272 190.368 18.5795 191.659 18.5147 192.708C18.5014 193.38 18.4757 193.882 18.4366 194.566C18.4233 195.173 18.4233 196.306 18.4233 197.475" stroke="#1E1E1E" stroke-width="2" stroke-linecap="round"/>
<path d="M26.8568 189.9C26.831 190.107 26.7787 190.497 26.6627 191.376C26.3821 193.501 26.0759 195.001 26.063 195.208C25.9978 195.677 25.9721 196.094 25.933 196.392C25.9197 196.587 25.9197 196.87 25.9978 197.162" stroke="#1E1E1E" stroke-width="2" stroke-linecap="round"/>
<path d="M35.2902 190.447C35.2902 190.964 35.4448 192.469 35.6021 193.359C35.7344 194.108 35.7321 194.584 35.7716 195.233C35.7845 195.391 35.8102 195.494 35.8235 195.947C35.8368 196.399 35.8368 197.198 35.8368 198.021" stroke="#1E1E1E" stroke-width="2" stroke-linecap="round"/>
<path d="M40.8195 133.77C41.0733 133.796 41.3272 133.821 41.9911 133.898C42.655 133.974 43.7212 134.101 45.0448 134.167C46.3683 134.232 47.9169 134.232 48.8797 134.257C50.9473 134.312 51.9726 134.437 52.4088 134.374C52.9346 134.298 52.2818 133.49 52.1926 133.156C52.0964 132.796 51.4387 132.669 50.4782 132.489C49.3282 132.273 48.44 132.386 47.58 132.322C46.4146 132.235 45.7967 132.386 45.4236 132.45C44.9027 132.539 44.1812 132.718 43.6297 132.872C42.8974 133.077 42.2088 133.715 41.7438 134.103C41.4043 134.386 41.3333 134.82 41.3191 135.422C41.3127 135.691 41.6134 135.847 41.8815 136C42.0408 136.091 42.2765 136.154 43.4858 136.32C44.6951 136.486 46.8784 136.74 48.1935 136.871C50.375 137.088 50.8433 136.925 51.2675 136.848C51.617 136.785 51.9726 136.669 52.2553 136.387C52.3072 136.31 52.3326 136.234 52.3838 136.118C52.4349 136.003 52.5111 135.851 52.6665 135.54" stroke="#1E1E1E" stroke-width="2" stroke-linecap="round"/>
<path d="M340.443 131.792C340.202 131.762 339.06 131.701 337.235 131.641C336.247 131.609 335.14 131.462 333.835 131.4C332.53 131.338 331.062 131.338 330.201 131.368C328.784 131.417 328.372 131.61 327.782 131.776C327.643 131.815 327.555 131.852 327.478 131.912C327.102 132.21 327.19 133.239 327.325 133.833C327.487 134.542 328.125 134.996 328.7 135.376C329.267 135.751 330.78 136.026 332.713 136.434C333.594 136.62 334.287 136.692 335.271 136.738C337.511 136.844 339.019 136.755 339.381 136.694C340.183 136.561 341.227 135.848 341.607 135.591C341.951 135.357 342.015 134.82 342.137 134.426C342.289 133.936 341.173 133.368 339.033 132.688C338.121 132.398 336.748 132.28 335.74 132.172C334.107 131.998 332.764 132.184 331.646 132.396C330.773 132.561 330.369 132.82 330.035 133.152C329.957 133.23 329.944 133.333 329.929 133.425C329.913 133.516 329.913 133.606 329.988 133.727C330.579 134.684 332.331 134.727 333.533 134.772C336.171 134.872 337.931 134.698 337.947 134.517C337.995 133.953 335.946 133.579 333.652 133.262C331.377 132.947 329.976 133.184 329.598 133.244C329.053 133.331 328.644 133.637 328.25 134.12C328.164 134.226 328.188 134.332 328.218 134.423C328.354 134.838 329.241 135.209 330.181 135.408C331.787 135.393 332.453 135.272 332.785 135.152C332.938 135.091 333.058 135.031 333.363 134.788" stroke="#1E1E1E" stroke-width="2" stroke-linecap="round"/>
<path d="M17.9144 175.634C18.0894 175.755 18.4023 176.027 18.5171 176.061C18.6916 176.113 18.8499 176.014 18.8975 175.953C18.9048 175.919 18.878 175.879 18.844 175.878C18.81 175.878 18.7697 175.918 18.6062 175.96" stroke="#1E1E1E" stroke-width="2" stroke-linecap="round"/>
<path d="M16.9379 173.396C17.0591 173.383 17.357 173.302 18.1419 173.132C18.5725 173.039 18.9032 173.097 19.2627 173.192C19.4737 173.301 19.623 173.382 19.7311 173.47C19.7988 173.531 19.8928 173.625 19.9897 173.762" stroke="#1E1E1E" stroke-width="2" stroke-linecap="round"/>
<path d="M15.7578 171.687C16.0268 171.539 16.6782 171.267 17.4166 170.996C17.7434 170.876 17.9405 170.873 18.2251 170.839C18.617 170.793 19.507 170.792 20.104 170.832C20.3472 170.849 20.5585 170.941 20.7619 171.009C20.9792 171.158 21.1688 171.293 21.2779 171.389C21.2917 171.376 21.2917 171.309 21.2917 171.239" stroke="#1E1E1E" stroke-width="2" stroke-linecap="round"/>
<path d="M14.5779 169.693C14.7394 169.639 15.1191 169.423 15.8635 169.016C16.2128 168.826 16.5025 168.785 17.1654 168.602C17.9362 168.389 18.2254 168.446 18.4897 168.418C18.9474 168.371 19.1613 168.324 19.6949 168.276C20.8393 168.174 21.0599 168.337 21.3518 168.357C21.5802 168.373 21.9543 168.539 22.2202 168.642C22.268 168.662 22.3083 168.689 22.3492 168.716C22.3901 168.743 22.4304 168.77 22.5125 168.839" stroke="#1E1E1E" stroke-width="2" stroke-linecap="round"/>
<path d="M25.0934 170.813C25.0934 171.207 25.1308 171.963 25.1971 172.341C25.2593 172.697 25.3381 172.965 25.5364 173.248C25.7737 173.587 26.0747 173.928 26.226 174.202C26.357 174.439 26.4339 174.665 26.5095 174.986C26.5727 175.254 26.7353 175.776 26.8214 176.12C26.886 176.377 26.6798 175.237 26.8866 174.602C26.9867 174.294 27.2452 174.138 27.4158 173.93C27.6123 173.691 27.7937 173.42 27.9163 173.194C28.035 172.974 28.1336 172.741 28.3033 172.467C28.4686 172.2 28.4928 171.423 28.3614 170.993C28.1846 170.416 26.8894 170.549 26.5583 170.52C26.378 170.505 26.0775 170.473 25.7566 170.52C25.6413 170.567 25.6226 170.66 25.5942 170.746C25.5659 170.831 25.5285 170.906 25.32 170.983" stroke="#1E1E1E" stroke-width="2" stroke-linecap="round"/>
<path d="M26.6798 171.38C26.6798 171.417 26.6985 171.549 26.7362 171.747C26.7739 171.888 26.7931 172.283 26.7931 172.746C26.7931 172.873 26.7931 172.779 26.7931 172.683" stroke="#1E1E1E" stroke-width="2" stroke-linecap="round"/>
<path d="M26.1699 167.414C26.1325 167.414 26.0571 167.47 25.9628 167.602C25.8866 168.241 25.924 169.15 25.9713 169.565C25.9993 169.642 26.0554 169.661 26.1132 169.68" stroke="#1E1E1E" stroke-width="2" stroke-linecap="round"/>
<path d="M28.6062 167.697C28.5875 167.904 28.4374 168.692 28.3325 169.179C28.3042 169.471 28.2476 169.717 28.2192 169.905C28.2096 170 28.2096 170.094 28.2096 170.19" stroke="#1E1E1E" stroke-width="2" stroke-linecap="round"/>
<path d="M26.5665 172.966C26.5665 173.003 26.6039 173.079 26.6886 173.145C26.7267 173.175 26.792 173.118 26.7835 173.033C26.7002 172.818 26.5297 172.608 26.3787 172.523C26.3212 172.512 26.3025 172.568 26.2832 172.683" stroke="#1E1E1E" stroke-width="2" stroke-linecap="round"/>
<path d="M33.0254 170.36C32.894 170.379 32.6673 170.529 32.469 170.709C32.2407 170.916 32.0441 171.209 31.8928 171.483C31.6687 171.888 31.5523 172.923 31.6087 173.381C31.6635 173.825 31.9104 174.268 32.0804 174.561C32.2951 174.93 32.477 175.175 32.7316 175.402C32.8562 175.512 33.3421 175.853 34.3115 176.381C35.4176 176.983 36.235 177.045 36.4141 177.055C36.8034 177.075 37.4039 176.99 37.8305 176.866C38.4 176.702 38.954 175.801 39.0968 175.517C39.2199 175.271 39.3325 174.932 39.418 174.404C39.5269 173.731 39.2214 173.084 39.041 172.684C38.9314 172.441 38.7863 172.174 38.3906 171.618C38.2951 171.494 38.239 171.437 38.1821 171.39C38.1251 171.342 38.069 171.305 38.0112 171.266" stroke="#1E1E1E" stroke-width="2" stroke-linecap="round"/>
<path d="M34.6685 172.569C34.7619 172.1 34.9891 171.269 35.0177 170.918C35.0651 170.512 35.0838 170.19 35.1121 169.965C35.1217 169.796 35.1217 169.516 35.1217 169.227" stroke="#1E1E1E" stroke-width="2" stroke-linecap="round"/>
<path d="M38.9895 264.847C39.0067 264.743 39.0418 264.466 39.0852 263.952C39.1209 263.529 39.1286 263.002 39.1722 262.11C39.2023 261.493 39.1641 260.544 39.1639 259.856C39.1636 259.169 39.1808 258.772 39.2329 258.343C39.3399 257.462 39.4601 256.866 39.486 256.467C39.5277 255.823 39.6169 255.349 39.6256 255.175C39.6343 254.999 39.6692 254.481 39.6865 253.689C39.7004 253.051 39.7738 252.63 39.8256 252.015C39.9344 250.723 40.0876 249.806 40.1048 249.589C40.1292 249.282 40.1921 248.952 40.2008 248.691C40.2043 248.585 40.2267 248.534 41.2623 248.36C42.2979 248.187 44.3513 247.894 45.9614 247.734C47.5714 247.574 48.6758 247.557 49.3137 247.539C49.9517 247.522 50.0897 247.505 51.2393 247.573C52.3889 247.642 54.5459 247.797 55.683 247.895C56.82 247.992 56.8718 248.026 56.9157 248.07C57.1098 248.263 57.2211 248.704 57.2044 250.277C57.1987 250.811 57.1008 251.414 57.0653 251.958C56.9994 252.966 56.9952 253.724 56.9429 254.401C56.912 254.801 56.9251 255.32 56.882 256.009C56.8389 256.699 56.7526 257.544 56.7081 258.032C56.6543 258.622 56.6464 258.867 56.6203 259.292C56.5762 260.009 56.6287 260.576 56.6548 260.914C56.7348 261.95 56.7683 262.544 56.8117 262.98C56.8809 263.676 56.9774 264.445 57.0208 264.914C57.106 265.836 56.9602 266.014 56.9772 266.136C56.9977 266.284 57.6525 266.156 59.0573 265.981C59.9917 265.866 61.3939 265.876 63.7274 265.815C66.0608 265.754 69.2877 265.668 71.1053 265.641C72.9229 265.614 73.2336 265.648 73.4194 265.675C73.6053 265.701 73.6571 265.718 73.7355 265.831C73.9459 266.132 74.0242 266.605 74.0587 267.135C74.0993 267.759 74.2333 268.245 74.242 268.532C74.2491 268.768 74.2856 269.098 74.1045 270.49C73.9519 271.663 73.5609 273.764 73.3742 274.909C73.1875 276.054 73.1875 276.174 73.1271 276.806C73.0667 277.438 72.946 278.577 72.8837 279.301C72.7979 280.301 72.856 280.863 72.9428 281.367C73.0675 282.092 73.2398 282.485 73.2401 282.721C73.2402 282.865 72.3749 282.852 70.9759 282.844C70.2322 282.84 69.4216 282.749 68.8571 282.723C68.2926 282.696 67.9993 282.713 66.5367 282.67C65.0741 282.627 62.4512 282.524 60.9792 282.479C59.5073 282.434 59.2657 282.451 59.0463 282.478C58.6356 282.527 57.6823 282.574 56.4802 282.582C56.0372 282.586 55.9337 282.608 55.8631 282.669C55.4978 282.983 55.757 283.826 55.7834 284.341C55.8063 284.788 55.8443 285.187 55.8704 285.948C55.8912 286.554 55.8793 287.607 55.8966 288.27C55.9138 288.933 55.9484 289.175 55.9403 291.051C55.9321 292.927 55.8804 296.43 55.6121 298.252C55.3439 300.073 54.8607 300.108 52.0493 300.022C49.2379 299.936 44.1129 299.729 41.421 299.614C38.7291 299.499 38.6255 299.481 38.5894 299.412C38.5016 299.244 38.7442 298.822 38.9531 298.162C39.2182 297.324 39.1118 296.573 39.0595 296.146C39.0349 295.945 39.0418 295.772 38.9727 294.768C38.9037 293.765 38.7657 291.936 38.6687 290.864C38.5717 289.792 38.5199 289.534 38.4846 289.254C38.4126 288.682 38.2762 287.826 38.0325 286.713C37.7916 285.613 37.7868 284.807 37.7954 284.415C37.8014 284.143 37.8391 283.727 37.7528 283.239C37.6945 282.91 37.1091 282.992 36.502 282.958C36.1011 282.935 35.5153 282.854 33.289 282.767C31.0627 282.679 27.2147 282.576 25.1806 282.514C23.1464 282.452 23.0429 282.435 22.9119 282.426C22.7809 282.417 22.6256 282.417 22.5025 281.804C22.3793 281.192 22.2931 279.967 22.3435 278.654C22.394 277.341 22.5838 275.978 22.7161 273.93C22.8484 271.881 22.9174 269.189 22.9443 267.734C22.9738 266.14 22.9362 265.877 22.9708 265.685C22.9847 265.608 23.0743 265.597 25.5774 265.562C28.0806 265.528 33.0158 265.476 35.7997 265.458C38.5837 265.44 39.0669 265.457 39.5647 265.475" stroke="#1E1E1E" stroke-width="2" stroke-linecap="round"/>
<path d="M47.7743 255.069C47.8433 255.346 48.087 256.353 48.1748 257.01C48.3121 258.036 48.384 258.623 48.4104 259.093C48.4475 259.755 48.4886 260.557 48.515 261.133C48.5587 261.5 48.5759 261.813 48.6021 262.264C48.6109 262.61 48.6109 263.197 48.4541 263.801" stroke="#1E1E1E" stroke-width="2" stroke-linecap="round"/>
<path d="M47.5652 284.927C47.5652 285.187 47.6342 285.881 47.6784 286.607C47.7024 287.002 47.7566 287.313 47.7309 287.766C47.6993 288.324 47.6698 288.707 47.6264 289.462C47.598 289.954 47.6175 290.852 47.6347 291.392C47.6649 292.337 47.7566 292.613 47.783 292.909C47.7916 292.979 47.8089 293.031 47.8177 293.187C47.8266 293.343 47.8266 293.602 47.8789 293.973" stroke="#1E1E1E" stroke-width="2" stroke-linecap="round"/>
<path d="M28.6882 273.946C28.9832 273.963 29.4705 273.998 30.0711 274.042C30.5809 274.078 31.195 274.085 31.7347 274.137C32.1005 274.173 32.8307 274.224 34.1683 274.329C34.9177 274.387 35.8165 274.364 36.3305 274.356C37.1421 274.342 37.4542 274.277 37.7682 274.251C37.8386 274.242 37.8903 274.225 37.9515 274.216C38.0127 274.207 38.0817 274.207 38.1528 274.207" stroke="#1E1E1E" stroke-width="2" stroke-linecap="round"/>
<path d="M57.6572 274.416C57.7435 274.416 57.8298 274.416 59.1684 274.494C60.5071 274.572 63.0955 274.727 64.4634 274.798C65.8313 274.87 65.9003 274.853 66.2983 274.852C66.6962 274.852 67.4209 274.869 67.8202 274.87C68.2194 274.87 68.2712 274.853 68.3245 274.835" stroke="#1E1E1E" stroke-width="2" stroke-linecap="round"/>
<path d="M71.8804 353.794C71.7763 353.776 70.9465 353.741 70.2703 353.819C69.0844 353.956 68.4135 354.351 68.0906 354.499C67.5822 354.731 67.2275 354.995 67.0267 355.161C66.8363 355.319 66.5488 355.622 66.286 355.85C65.9364 356.153 65.6766 356.79 65.3976 357.372C65.0041 358.193 64.9607 358.934 64.9346 359.16C64.9126 359.351 64.9085 359.527 64.8823 359.977C64.8242 360.978 64.9079 361.862 64.9861 362.279C65.109 362.935 65.3252 363.655 65.6131 364.25C65.8576 364.756 66.2654 365.242 66.6066 365.61C66.6782 365.688 66.7716 365.749 67.256 366.018C67.7405 366.286 68.6206 366.752 69.5139 367.07C70.4073 367.388 71.2874 367.543 72.0082 367.623C73.2588 367.762 73.9359 367.668 74.2742 367.547C75.2596 367.194 75.6432 366.695 75.958 366.327C76.1116 366.148 76.4788 365.339 76.958 364.268C77.2048 363.716 77.3008 363.365 77.7437 362.122C77.9994 361.405 78.0329 360.906 78.1024 360.637C78.2015 360.254 78.2075 359.585 78.1903 358.802C78.1768 358.189 77.9304 357.493 77.5999 356.719C77.1968 355.774 76.9013 355.504 76.4576 355.128C75.8905 354.649 74.8107 354.422 74.3315 354.291C73.5903 354.088 73.1029 353.986 72.6401 353.898C72.3342 353.846 72.0561 353.811 71.8124 353.759C71.7068 353.741 71.6377 353.741 71.5666 353.741" stroke="#1E1E1E" stroke-width="2" stroke-linecap="round"/>
<path d="M68.8475 358.186C68.6566 358.272 68.4469 358.551 68.2903 358.899C68.1583 359.193 68.1855 359.527 68.185 360.561C68.1846 361.315 68.4114 361.653 68.8454 362.436C69.2205 363.112 70.0784 363.602 70.5809 363.894C70.8208 364.033 71.1117 364.077 71.5041 364.19C72.0172 364.338 72.8017 364.183 73.2122 364.009C73.8348 363.744 74.2313 363.034 74.6243 362.155C74.8272 361.7 74.9477 361.291 74.9569 359.943C74.9609 359.353 74.8787 359.076 74.8089 358.858C74.7046 358.588 74.4959 358.378 74.2779 358.239C74.2167 358.204 74.1477 358.169 74.0766 358.134" stroke="#1E1E1E" stroke-width="2" stroke-linecap="round"/>
<path d="M71.0959 356.147C71.1655 356.198 71.235 356.407 71.2614 357.788C71.2701 358.081 71.2873 358.133 71.3048 358.185C71.3224 358.238 71.3396 358.29 71.3574 358.395" stroke="#1E1E1E" stroke-width="2" stroke-linecap="round"/>
<path d="M37.996 358.552C38.0132 358.621 38.0305 358.69 38.1515 359.269C38.2726 359.848 38.4969 360.935 38.6297 361.841C38.8626 363.428 38.8844 364.199 38.9801 364.346C39.1143 364.553 39.0941 364.809 39.1113 364.896C39.1286 364.898 39.1631 364.811 39.1895 364.732C39.2159 364.653 39.2332 364.584 39.2509 364.513" stroke="#1E1E1E" stroke-width="2" stroke-linecap="round"/>
<path d="M38.3097 358.238C38.3615 358.134 38.6736 357.995 39.1618 357.881C39.4524 357.814 39.8585 357.837 40.354 357.889C40.8711 357.944 41.375 358.115 41.7496 358.281C41.8912 358.343 41.9 358.429 41.883 358.525C41.7677 359.175 40.9441 359.839 40.2476 360.181C40.0206 360.259 39.7445 360.346 39.5333 360.425C39.322 360.504 39.184 360.573 39.0418 360.644" stroke="#1E1E1E" stroke-width="2" stroke-linecap="round"/>
<path d="M44.1663 361.323C43.9409 361.219 43.4886 361.114 42.905 361.192C42.219 361.284 41.8498 361.844 41.4051 362.706C41.2502 363.006 41.3076 363.257 41.3596 363.44C41.4026 363.591 41.5685 363.676 41.7335 363.78C41.9368 363.909 42.7649 364.111 43.8452 364.372C44.2341 364.466 44.3043 364.461 44.383 364.418C44.8161 364.18 44.9841 363.073 44.9514 362.31C44.7614 362.006 44.4816 361.777 44.1859 361.664C44.0455 361.62 43.9247 361.603 43.748 361.533" stroke="#1E1E1E" stroke-width="2" stroke-linecap="round"/>
<path d="M46.4148 361.01C46.4148 361.7 46.4321 363.066 46.51 363.205C46.6151 363.393 46.8499 363.45 47.0062 363.485C47.5699 363.611 48.1739 362.824 48.4356 362.354C48.7583 361.774 48.942 361.585 48.9768 361.481C48.9943 361.429 49.0115 361.377 49.0204 361.505C49.0825 362.404 49.411 362.89 49.6647 363.257C49.9005 363.598 50.3512 363.78 50.797 363.877C50.9758 363.916 51.224 363.799 51.5024 363.626C51.9529 363.344 52.1479 362.686 52.3493 361.919C52.3759 361.726 52.3759 361.554 52.3673 361.43C52.3587 361.307 52.3414 361.238 52.3236 361.01" stroke="#1E1E1E" stroke-width="2" stroke-linecap="round"/>
<path d="M55.1996 361.533C55.1823 361.55 55.1651 361.567 55.1907 361.585C55.2739 361.642 55.4427 361.603 55.6252 361.507C56.0843 361.267 56.2098 360.629 56.3236 360.287C56.3432 360.228 56.3155 360.174 56.1427 360.147C55.6471 360.071 55.2006 360.173 54.923 360.346C54.4824 360.621 53.9823 361.146 53.5467 361.642C53.1587 362.084 53.2648 363.008 53.3341 363.779C53.3486 363.94 53.4207 364.092 53.4732 364.206C53.7695 364.852 55.4746 364.618 55.9999 364.514C56.088 364.479 56.1398 364.444 56.2182 364.418C56.2966 364.391 56.4002 364.374 56.5069 364.356" stroke="#1E1E1E" stroke-width="2" stroke-linecap="round"/>
<path d="M58.4939 360.068C58.4939 360.345 58.5629 361.387 58.7112 362.149C58.8953 363.094 58.8944 363.483 58.9556 363.745C59.0311 364.069 59.0513 364.39 59.0605 364.835C59.0689 365.243 59.0858 363.87 59.182 363.426C59.2778 362.983 59.4696 362.65 59.5828 362.37C59.7287 362.011 59.888 361.551 60.0098 361.237C60.146 360.886 60.4977 360.54 60.6459 360.339C60.6827 360.29 60.7413 360.261 60.8112 360.243C60.881 360.225 60.9672 360.225 61.0376 360.26C61.3474 360.412 61.4912 360.782 61.5788 361.009C61.6486 361.253 61.7009 361.514 61.7357 361.68C61.7532 361.759 61.7704 361.828 61.7882 362.003" stroke="#1E1E1E" stroke-width="2" stroke-linecap="round"/>
<path d="M309.78 332.479C309.621 332.479 309.331 332.508 308.577 332.551C307.75 332.599 307.205 332.697 306.887 332.762C306.101 332.922 305.517 333.119 305.386 333.184C305.068 333.343 304.53 333.96 304.186 334.442C304.043 334.642 303.844 335.008 303.576 335.646C303.419 336.018 303.293 336.514 303.161 337.17C303.029 337.826 302.914 338.633 302.855 339.2C302.795 339.766 302.795 340.069 302.838 340.448C302.933 341.279 303.115 341.893 303.245 342.212C303.512 342.864 304.044 343.347 304.624 343.869C304.941 344.155 305.377 344.392 306.046 344.677C306.715 344.962 307.623 345.264 308.213 345.442C309.04 345.69 309.487 345.707 310.182 345.692C310.689 345.682 311.51 345.649 312.034 345.613C312.762 345.562 313.083 345.417 313.3 345.264C313.507 345.12 313.852 344.807 314.339 344.429C314.557 344.26 314.696 344.109 314.943 343.776C315.19 343.442 315.536 342.923 315.808 342.361C316.08 341.798 316.267 341.208 316.385 340.594C316.503 339.98 316.546 339.36 316.554 338.947C316.566 338.347 316.403 337.837 316.142 337.155C315.999 336.783 315.766 336.387 315.496 335.999C315.226 335.611 314.909 335.251 314.623 334.972C314.338 334.693 314.093 334.505 313.686 334.265C313.279 334.024 312.717 333.736 312.197 333.494C311.226 333.042 310.568 332.828 310.263 332.749C310.13 332.712 310.044 332.683 309.978 332.668C309.912 332.653 309.868 332.653 309.824 332.61" stroke="#1E1E1E" stroke-width="2" stroke-linecap="round"/>
<path d="M321.568 336.408C321.568 336.379 321.553 336.307 321.51 336.205C321.427 336.012 320.729 336.059 320.1 336.109C319.877 336.127 319.706 336.247 319.575 336.371C319.45 336.488 319.428 336.741 319.457 337.024C319.48 337.252 319.963 337.671 320.617 338.266C320.902 338.526 321.127 338.661 321.533 338.872C321.94 339.083 322.531 339.357 323.058 339.714C323.586 340.071 324.033 340.503 324.335 340.826C324.805 341.33 324.944 341.617 324.966 341.74C324.99 341.876 324.959 342.024 324.908 342.177C324.771 342.59 323.916 343.012 323.352 343.414C323.148 343.559 322.864 343.597 322.163 343.619C321.607 343.636 320.641 343.569 320.065 343.525C319.33 343.438 319.094 343.364 318.964 343.321C318.905 343.306 318.862 343.306 318.905 343.262" stroke="#1E1E1E" stroke-width="2" stroke-linecap="round"/>
<path d="M327.723 343.262C327.767 343.19 327.825 342.756 328.021 342.158C328.073 341.998 328.115 341.825 328.166 341.203C328.217 340.581 328.275 339.515 328.29 338.728C328.315 337.465 328.218 336.86 328.167 336.635C328.131 336.425 328.116 336.263 328.087 336.003C328.059 335.8 328.001 335.454 327.898 335.011" stroke="#1E1E1E" stroke-width="2" stroke-linecap="round"/>
<path d="M325.41 339.508C325.424 339.508 325.438 339.508 326.065 339.493C326.692 339.479 327.931 339.45 328.814 339.377C329.698 339.305 330.187 339.19 330.497 339.109C330.923 338.985 331.142 338.926 331.324 338.897C331.405 338.882 331.462 338.868 331.565 338.853" stroke="#1E1E1E" stroke-width="2" stroke-linecap="round"/>
<path d="M337.066 339.988C337.066 339.959 337.037 339.901 336.957 339.814C336.712 339.545 335.791 339.595 334.98 339.732C334.807 339.762 334.653 339.841 334.543 339.9C334.064 340.154 334.344 341.295 334.366 341.718C334.375 341.879 334.432 342.01 334.504 342.126C334.673 342.397 335.085 342.519 335.688 342.643C336.262 342.762 336.773 342.68 337.042 342.644C337.271 342.613 337.688 342.391 338.183 342.107C338.53 341.908 338.651 341.229 338.732 340.862C338.758 340.747 338.769 340.585 338.747 340.447C338.74 340.404 338.682 340.438 338.638 340.489C338.396 340.77 338.347 341.627 338.426 342.198C338.555 343.129 339.772 343.495 339.867 343.473C339.975 343.351 340.107 343.204 340.273 343.11C340.368 343.073 340.483 343.059 340.602 343.044" stroke="#1E1E1E" stroke-width="2" stroke-linecap="round"/>
<path d="M341.344 339.551C341.344 339.522 341.503 339.911 341.779 340.753C342.065 341.626 342.043 342.185 342.05 342.294C342.076 342.678 342.115 343.29 342.116 343.596C342.116 343.679 342.043 342.904 342.072 342.002C342.09 341.44 342.261 341.023 342.355 340.631C342.5 340.026 343.045 339.495 343.301 339.341C343.349 339.312 343.395 339.304 343.446 339.304C343.715 339.463 344.093 340.014 344.305 340.307C344.37 340.337 344.471 340.337 344.575 340.337" stroke="#1E1E1E" stroke-width="2" stroke-linecap="round"/>
<path d="M347.75 335.617C347.75 335.66 347.729 335.735 347.686 335.879C347.659 335.968 347.643 336.097 347.595 337.293C347.547 338.488 347.473 340.748 347.44 341.934C347.406 343.161 347.428 343.301 347.434 343.467C347.44 343.667 347.482 343.858 347.498 344.276C347.503 344.362 347.514 344.394 347.525 344.39C347.535 344.385 347.546 344.342 347.589 344.266" stroke="#1E1E1E" stroke-width="2" stroke-linecap="round"/>
<path d="M345.146 337.804C345.177 337.804 345.209 337.804 345.724 337.798C346.239 337.793 347.237 337.782 347.894 337.782C348.837 337.782 349.164 337.814 349.271 337.83C349.462 337.836 349.614 337.846 349.737 337.862C349.828 337.868 349.976 337.868 350.129 337.868" stroke="#1E1E1E" stroke-width="2" stroke-linecap="round"/>
<path d="M310.329 354.024C310.277 354.024 310.06 354.024 309.323 354.089C308.774 354.137 307.878 354.284 307.138 354.45C306.399 354.616 305.846 354.814 305.462 354.969C305.078 355.123 304.879 355.226 304.626 355.396C304.372 355.567 304.07 355.8 303.767 356.08C303.465 356.36 303.171 356.679 302.989 356.896C302.732 357.203 302.573 357.582 302.39 358.052C302.252 358.406 302.275 358.804 302.318 359.326C302.343 359.624 302.413 359.986 302.544 360.509C302.674 361.033 302.873 361.707 303.213 362.495C303.553 363.282 304.028 364.163 304.394 364.777C304.759 365.391 305.001 365.71 305.186 365.918C305.469 366.235 305.764 366.379 306.25 366.579C306.583 366.716 307.116 366.865 307.625 366.985C308.134 367.104 308.609 367.173 309.234 367.213C309.859 367.253 310.619 367.261 311.252 367.171C311.886 367.08 312.37 366.89 312.692 366.736C313.015 366.582 313.162 366.47 313.432 366.179C313.702 365.887 314.091 365.421 314.33 365.099C314.569 364.776 314.647 364.612 314.747 364.325C314.848 364.037 314.969 363.631 315.061 363.206C315.154 362.781 315.214 362.349 315.224 361.699C315.233 361.049 315.19 360.193 315.103 359.442C315.016 358.69 314.886 358.068 314.755 357.605C314.623 357.142 314.494 356.857 314.276 356.525C314.058 356.192 313.756 355.821 313.475 355.513C313.194 355.205 312.943 354.972 312.55 354.696C312.158 354.42 311.631 354.109 311.277 353.919C310.924 353.728 310.76 353.668 310.386 353.585C310.012 353.502 309.433 353.398 308.784 353.291" stroke="#1E1E1E" stroke-width="2" stroke-linecap="round"/>
<path d="M320.46 358.003C320.408 357.986 320.321 357.96 320.151 357.925C319.89 357.871 319.554 357.872 319.098 357.942C318.809 357.985 318.426 358.149 318.174 358.268C317.798 358.444 317.668 358.64 317.589 358.779C317.499 358.939 317.502 359.232 317.519 359.546C317.531 359.762 317.65 359.905 317.862 360.148C318.021 360.33 318.325 360.598 318.627 360.857C318.93 361.116 319.232 361.349 319.513 361.608C319.794 361.866 320.044 362.143 320.217 362.363C320.498 362.722 320.616 363.097 320.695 363.411C320.73 363.551 320.704 363.614 320.665 363.683C320.624 363.757 320.539 363.823 320.331 363.927C319.928 364.129 319.579 364.225 319.358 364.255C318.972 364.277 318.646 364.303 318.489 364.329C318.418 364.338 318.367 364.338 318.365 364.338" stroke="#1E1E1E" stroke-width="2" stroke-linecap="round"/>
<path d="M323.601 362.27C323.913 362.279 324.428 362.262 324.819 362.145C325.412 361.967 325.799 361.765 325.899 361.691C326.098 361.544 326.192 361.303 326.24 361.063C326.312 360.707 326.167 360.474 325.875 360.086C325.635 359.767 325.173 359.679 324.8 359.627C324.532 359.589 324.098 359.575 323.824 359.565C323.446 359.553 323.253 359.617 323.083 359.713C322.718 359.919 322.459 360.305 322.301 360.62C322.228 360.765 322.24 361.202 322.248 361.782C322.253 362.129 322.327 362.348 322.435 362.6C322.588 362.955 322.867 363.29 323.158 363.594C323.31 363.753 323.51 363.882 323.698 363.996C323.887 364.111 324.068 364.197 324.339 364.302C324.609 364.407 324.964 364.528 325.233 364.603C325.501 364.678 325.674 364.704 325.94 364.726C326.56 364.777 326.995 364.775 327.117 364.749C327.335 364.627 327.614 364.487 327.706 364.391C327.719 364.365 327.728 364.339 327.737 364.312" stroke="#1E1E1E" stroke-width="2" stroke-linecap="round"/>
<path d="M330.486 357.611C330.451 357.724 330.433 357.933 330.498 358.608C330.555 359.197 330.692 360.285 330.759 361.144C330.826 362.002 330.826 362.599 330.813 362.988C330.787 363.756 330.73 363.91 330.717 364.045C330.706 364.156 330.678 364.276 330.664 364.412C330.651 364.469 330.643 364.53 330.638 364.595C330.634 364.626 330.625 364.652 330.669 364.705" stroke="#1E1E1E" stroke-width="2" stroke-linecap="round"/>
<path d="M334.465 362.323C334.551 362.323 335.062 362.297 335.786 362.249C336.08 362.229 336.261 362.149 336.565 362.049C336.893 361.941 337.091 361.826 337.225 361.734C337.7 361.413 337.841 361.241 338.007 360.997C338.13 360.816 338.147 360.657 338.151 360.408C338.155 360.204 337.99 360.02 337.912 359.889C337.816 359.73 337.555 359.618 336.824 359.361C336.46 359.233 336.158 359.225 335.958 359.203C335.655 359.171 335.244 359.103 334.711 359.059C334.379 359.032 334.117 359.12 333.611 359.342C333.345 359.458 333.226 359.713 333.073 359.909C332.967 360.045 332.929 360.21 332.877 360.358C332.805 360.563 332.711 360.838 332.672 361.168C332.633 361.497 332.676 361.729 332.754 361.92C332.893 362.26 333.111 362.566 333.264 362.758C333.328 362.838 333.373 362.88 333.52 363.054C333.668 363.227 333.918 363.529 334.177 363.793C334.671 364.297 335.014 364.53 335.14 364.604C335.432 364.775 335.641 364.792 335.799 364.814C336.058 364.85 336.462 364.818 336.658 364.805C336.85 364.792 337.09 364.662 337.374 364.552C337.465 364.513 337.536 364.469 337.614 364.417C337.658 364.391 337.709 364.365 337.789 364.338" stroke="#1E1E1E" stroke-width="2" stroke-linecap="round"/>
<path d="M342.056 360.49C342.073 360.473 342.082 360.412 342.065 360.329C342.03 360.161 341.655 360.315 341.533 360.39C341.393 360.474 341.263 360.733 341.092 361.173C341.013 361.378 340.958 361.731 340.879 362.03C340.8 362.329 340.722 362.571 340.678 362.795C340.595 363.213 340.642 363.56 340.69 363.796C340.745 364.068 341.076 364.458 341.392 364.783C341.642 365.04 342.185 365.149 342.56 365.159C343.071 365.172 343.268 364.941 343.417 364.845C343.556 364.792 343.652 364.74 343.692 364.683C343.705 364.644 343.705 364.584 343.705 364.522" stroke="#1E1E1E" stroke-width="2" stroke-linecap="round"/>
<path d="M342.265 360.464C342.647 360.351 343.207 360.142 343.503 360.132C343.8 360.219 344.045 360.342 344.15 360.433C344.176 360.455 344.202 360.472 344.229 360.516" stroke="#1E1E1E" stroke-width="2" stroke-linecap="round"/>
<path d="M347.161 365.202C347.178 365.202 347.213 365.064 347.369 364.578C347.482 364.225 347.732 363.678 347.873 363.272C348.015 362.866 348.058 362.624 348.085 362.396C348.112 362.168 348.12 361.96 348.103 361.607C348.086 361.254 348.043 360.762 348.051 360.145C348.059 359.529 348.119 358.803 348.146 358.408C348.147 357.899 348.112 357.794 348.081 357.685C348.077 357.655 348.077 357.62 348.051 357.558" stroke="#1E1E1E" stroke-width="2" stroke-linecap="round"/>
<path d="M346.427 360.804C346.497 360.804 346.8 360.778 347.266 360.726C347.465 360.704 347.586 360.674 347.855 360.639C348.125 360.604 348.539 360.561 348.796 360.539C349.366 360.489 349.699 360.447 349.939 360.434C349.996 360.429 350.031 360.421 350.104 360.416C350.178 360.412 350.291 360.412 350.406 360.412" stroke="#1E1E1E" stroke-width="2" stroke-linecap="round"/>
<path d="M316.125 255.556C316.081 255.556 315.951 255.556 315.722 255.567C315.47 255.579 314.69 255.643 312.755 255.925C311.457 256.113 309.567 256.682 308.467 257.024C307.368 257.367 307.13 257.54 306.737 257.781C305.816 258.345 304.923 258.895 304.258 259.537C303.456 260.312 303.151 261.059 303.031 261.331C302.906 261.615 302.628 262.473 302.214 263.684C301.783 264.941 301.927 265.643 302.187 266.744C302.312 267.277 302.728 268.077 303.241 269.052C303.755 270.027 304.425 271.129 304.889 271.838C305.554 272.853 306.096 273.528 306.749 274.432C307.565 275.563 308.304 276.153 309.041 276.532C309.657 276.85 310.815 277.323 311.698 277.633C312.58 277.944 313.164 278.052 313.897 278.118C314.631 278.185 315.496 278.206 316.179 278.185C317.341 278.149 318.088 277.967 318.773 277.847C319.772 277.672 320.622 277.64 321.058 277.509C321.415 277.402 321.715 277.203 322.128 276.931C322.742 276.527 323.309 276.177 323.863 275.353C324.294 274.711 324.828 273.491 325.248 272.327C325.667 271.163 325.905 270.06 325.995 268.746C326.085 267.432 326.021 265.94 325.922 264.955C325.824 263.97 325.694 263.537 325.498 263.023C325.073 261.911 324.666 261.171 323.983 260.488C323.43 259.934 322.371 259.047 321.782 258.547C321.098 257.966 320.887 257.85 320.367 257.492C319.165 256.666 318.266 256.102 318.081 256.026C317.633 255.906 316.375 255.602 315.667 255.436C315.601 255.425 315.536 255.425 315.469 255.425" stroke="#1E1E1E" stroke-width="2" stroke-linecap="round"/>
<path d="M313.569 262.633C313.569 262.59 313.699 262.849 314.079 263.545C315.206 265.339 315.534 265.953 315.665 266.018C315.731 266.04 315.796 266.04 315.928 265.909" stroke="#1E1E1E" stroke-width="2" stroke-linecap="round"/>
<path d="M317.894 262.305C317.915 262.76 317.873 264.113 317.557 265.293C317.406 265.857 317.001 266.474 316.597 267.117C316.12 267.877 315.67 268.874 315.121 269.762C314.909 270.107 314.771 270.364 314.564 270.692C314.509 270.779 314.465 270.866 314.432 270.954C314.399 271.042 314.378 271.128 314.29 271.348" stroke="#1E1E1E" stroke-width="2" stroke-linecap="round"/>
<path d="M333.489 276.984C333.489 277.005 333.489 277.027 333.479 277.081C333.45 277.223 333.121 277.376 332.262 277.691C331.69 277.9 330.906 278.373 330.386 278.682C329.629 279.132 329.232 279.537 328.894 279.886C328.651 280.137 328.034 280.909 326.977 282.303C326.429 283.025 325.985 283.869 325.718 284.347C325.176 285.318 324.972 286.329 324.764 287.093C324.562 287.834 324.578 288.882 324.621 289.896C324.676 291.188 325.123 291.768 325.374 292.25C325.436 292.369 325.537 292.468 326.025 292.913C326.513 293.358 327.399 294.136 327.942 294.591C328.924 295.414 329.555 295.614 330.727 296.114C331.625 296.497 333.196 297.002 334.074 297.292C335.095 297.628 335.367 297.668 335.812 297.745C336.699 297.897 337.723 297.886 338.421 297.985C338.772 298.034 338.949 297.997 339.361 297.823C340.272 297.44 341.045 296.928 341.697 296.276C342.155 295.819 342.781 295.02 343.18 294.521C343.725 293.841 343.951 293.412 344.396 292.359C344.747 291.53 345.295 290.075 345.606 289.123C345.917 288.171 345.961 287.76 345.983 287.192C346.033 285.911 345.984 285.002 345.702 284.145C345.474 283.45 344.945 282.272 344.613 281.562C344.179 280.633 343.433 279.959 342.56 279.13C342.086 278.68 341.727 278.253 341.225 277.849C340.875 277.568 339.919 277.227 338.415 276.747C337.699 276.518 337.041 276.44 336.328 276.384C334.862 276.269 333.971 276.35 333.732 276.383C333.141 276.437 332.445 276.698 332.06 276.95C332.005 277.026 331.961 277.134 331.917 277.246" stroke="#1E1E1E" stroke-width="2" stroke-linecap="round"/>
<path d="M333.227 283.799C333.227 283.842 333.249 284.729 333.303 286.191C333.337 287.093 333.424 288.073 333.391 289.283C333.294 290.212 333.206 290.678 333.184 290.69C333.183 290.637 333.205 290.464 333.227 290.155" stroke="#1E1E1E" stroke-width="2" stroke-linecap="round"/>
<path d="M333.62 284.061C333.685 283.974 334.077 283.886 334.699 283.886C335.61 283.885 336.846 284.842 337.453 285.413C337.578 285.531 337.574 285.72 337.574 285.905C337.575 286.394 336.986 286.724 336.517 286.998C336.178 287.196 335.352 287.184 334.576 287.249C334.344 287.269 335.538 287.489 336.75 287.914C337.244 288.087 337.486 288.319 337.606 288.472C337.741 288.644 337.749 288.908 337.716 289.137C337.606 289.914 336.091 290.329 335.491 290.493C334.19 290.722 333.71 290.81 333.262 290.875C333.162 290.897 333.098 290.919 332.9 291.007" stroke="#1E1E1E" stroke-width="2" stroke-linecap="round"/>
<path d="M355.441 256.342C354.941 256.277 353.723 256.45 352.607 256.832C351.582 257.182 350.769 257.652 350.269 258C349.974 258.204 349.638 258.52 349.211 259.001C348.784 259.481 348.287 260.13 347.717 261.124C347.147 262.117 346.52 263.436 346.165 264.267C345.809 265.098 345.744 265.401 345.679 266.227C345.613 267.054 345.548 268.394 345.612 269.463C345.676 270.532 345.87 271.289 346.003 271.766C346.136 272.242 346.201 272.415 346.45 272.926C347.116 274.288 347.686 275.279 348.077 275.648C348.761 276.295 349.714 276.785 350.91 277.242C351.664 277.53 352.755 277.829 354.036 278.039C355.317 278.25 356.766 278.336 357.61 278.37C358.648 278.411 359.26 278.208 360.228 277.806C360.793 277.571 361.478 277.209 362.05 276.89C362.623 276.571 363.056 276.29 363.56 275.918C364.645 275.118 365.421 274.408 365.943 273.746C366.279 273.32 366.639 272.629 366.947 271.97C367.256 271.311 367.472 270.684 367.627 269.982C367.782 269.281 367.868 268.524 367.913 267.939C367.987 266.968 367.936 266.37 367.881 266C367.832 265.667 367.566 265.062 367.152 264.201C366.952 263.784 366.695 263.448 366.216 262.967C365.736 262.486 365.023 261.881 364.169 261.277C363.315 260.673 362.341 260.089 361.71 259.68C360.797 259.089 360.423 258.746 360.161 258.561C359.352 257.988 358.132 257.37 357.562 257.216C357.2 257.119 356.798 257.129 356.48 257.063C356.141 256.976 355.836 256.932 355.552 256.878C355.464 256.867 355.356 256.867 355.245 256.867" stroke="#1E1E1E" stroke-width="2" stroke-linecap="round"/>
<path d="M352.23 269.841C352.274 269.884 352.339 270.101 352.405 270.364C352.422 270.433 352.427 270.367 352.622 269.76C352.816 269.154 353.206 268.008 353.817 266.736C354.428 265.464 355.25 264.102 355.738 263.335C356.565 262.037 356.97 261.585 357.057 261.584C357.368 261.581 357.428 262.303 357.7 263.334C357.902 264.101 358.166 265.381 358.322 266.179C358.666 267.945 358.761 268.922 358.794 269.196C358.849 269.513 358.935 270.034 358.991 270.43C359.001 270.496 359.023 270.561 359.045 270.758" stroke="#1E1E1E" stroke-width="2" stroke-linecap="round"/>
<path d="M354.589 267.351H357.538" stroke="#1E1E1E" stroke-width="2" stroke-linecap="round"/>
<path d="M337.749 235.439C337.597 235.417 337.205 235.287 335.235 235.025C334.227 234.891 333.233 235.067 332.068 235.327C331.415 235.474 330.665 235.761 330.016 236.025C328.83 236.506 328.14 236.988 327.661 237.401C326.968 238.001 326.391 238.343 326.066 238.734C325.403 239.529 324.95 240.243 324.786 240.667C324.684 240.931 324.644 241.329 324.633 242.145C324.621 242.962 324.664 244.195 324.74 245.068C324.817 245.94 324.925 246.416 325.381 247.591C325.836 248.766 326.637 250.626 327.135 251.713C327.634 252.801 327.807 253.061 328.058 253.367C328.61 254.04 329.444 254.744 330.348 255.409C331.112 255.971 331.913 256.319 332.686 256.635C333.42 256.935 334.185 257.062 335.109 257.172C335.664 257.237 336.401 257.237 337.505 257.086C338.608 256.935 340.057 256.611 341.073 256.336C342.09 256.061 342.631 255.844 343.115 255.625C344.021 255.214 344.757 254.728 345.4 254.227C345.726 253.973 346.021 253.683 346.436 253.192C346.852 252.702 347.371 252.01 347.736 251.469C348.1 250.929 348.295 250.561 348.525 250.004C348.755 249.447 349.014 248.712 349.18 248.139C349.456 247.188 349.478 246.386 349.37 245.169C349.296 244.338 349.046 243.087 348.891 242.322C348.687 241.311 348.345 240.663 347.941 239.944C347.645 239.414 347.101 238.915 346.187 238.207C345.646 237.788 344.842 237.392 344.322 237.126C343.802 236.86 343.564 236.773 342.987 236.61C342.41 236.446 341.502 236.208 340.872 236.064C339.534 235.758 339.257 235.789 338.757 235.702C338.453 235.637 337.913 235.507 337.602 235.44C337.291 235.373 337.226 235.373 337.159 235.373" stroke="#1E1E1E" stroke-width="2" stroke-linecap="round"/>
<path d="M331.917 240.485C331.917 240.571 332.111 240.875 333.293 242.176C334.257 243.239 336.053 245.035 337.053 246.035C338.204 247.188 338.577 247.537 338.904 247.963C339.058 248.15 339.188 248.28 339.309 248.422C339.43 248.565 339.538 248.716 339.649 248.938" stroke="#1E1E1E" stroke-width="2" stroke-linecap="round"/>
<path d="M333.49 248.807C333.511 248.198 333.642 247.238 333.902 246.443C334.077 246.037 334.336 245.626 335.194 244.582C336.052 243.537 337.501 241.872 338.994 240.157" stroke="#1E1E1E" stroke-width="2" stroke-linecap="round"/>
<path d="M5.70288 180.393C9.61994 180.393 17.2643 180.491 20.3022 180.64C23.0437 180.773 28.2327 180.69 31.0511 180.739C37.2095 180.846 43.3553 180.791 44.5429 180.641C47.2855 180.295 51.6579 180.785 52.6987 181.674C53.7683 182.589 53.1465 184.634 53.4415 186.072C53.9693 188.645 53.5438 192.248 53.3941 195.159C53.2139 198.66 53.2443 203.519 53.5883 204.062C55.3046 206.77 61.7337 206.387 63.8139 206.536C65.8034 206.68 67.5693 206.98 73.5828 207.129C75.2847 207.172 79.2049 207.377 84.689 207.426C86.9488 207.446 91.0628 207.674 97.0896 207.625C99.7933 207.603 103.327 207.377 108.314 207.426C111.055 207.453 112.543 207.674 113.825 207.722C114.921 207.764 118.841 207.97 124.275 207.921C126.777 207.899 129.136 207.674 132.198 207.625C133.896 207.598 136.84 207.377 141.182 207.279C144.364 207.208 148.206 206.784 152.354 206.735C153.959 206.716 154.545 206.588 158.077 206.538C161.608 206.487 168.067 206.487 171.638 206.536C175.701 206.592 178.16 206.784 181.37 206.833C184.994 206.888 188.746 207.276 191.857 207.426C195.86 207.619 200.014 207.869 206.669 208.019C208.618 208.063 211.27 208.267 214.825 208.316C216.82 208.343 222.019 208.563 229.33 208.612C235.003 208.65 238.959 208.664 240.838 208.514C241.335 208.475 241.824 208.367 245.305 208.317C248.786 208.267 255.244 208.267 258.963 208.316C265.058 208.396 267.621 208.367 271.618 208.218C274.745 208.101 278.486 207.774 280.819 207.625C283.73 207.438 287.983 207.279 291.764 207.18C294.663 207.104 299.557 207.276 302.419 207.376C307.559 207.554 310.712 207.869 313.038 208.068C315.16 208.249 320.764 208.563 327.434 208.367C329.806 208.298 330.092 207.78 330.342 207.432C331.256 206.153 331.184 204.418 331.236 199.046C331.256 196.89 330.792 195.326 330.642 193.792C330.511 192.44 330.003 190.291 329.556 187.28C329.332 185.773 329.505 183.116 329.701 181.706C329.897 180.296 330.288 180.198 338.073 180.147C345.859 180.097 361.026 180.097 376.652 180.097" stroke="#1E1E1E" stroke-width="2" stroke-linecap="round"/>
<path d="M3.33252 205.455C3.53141 205.455 5.1753 205.455 7.834 205.505C9.60366 205.538 11.0095 205.756 12.239 205.781C12.9255 205.795 15.2149 205.907 18.4786 205.932C19.8547 205.942 20.2566 206.058 20.6822 206.083C23.2522 206.233 27.2872 206.109 28.1656 206.033C29.4448 205.922 31.4519 205.708 33.3097 205.556C34.3194 205.473 35.0727 205.304 35.5488 205.28C35.9811 205.257 38.3183 205.154 41.707 205.179C42.9576 205.203 43.2559 205.253 45.1997 205.279C47.1434 205.304 50.7235 205.304 54.4121 205.455" stroke="#1E1E1E" stroke-width="2" stroke-linecap="round"/>
<path d="M330.614 206.497C330.644 206.497 330.674 206.497 331.986 206.482C333.298 206.467 335.892 206.437 337.303 206.407C338.864 206.374 339.732 206.197 340.906 206.016C341.986 205.85 343.256 205.865 344.223 205.79C345.606 205.682 347.166 205.865 348.589 205.94C349.674 205.997 350.756 206.045 351.975 206.12C353.332 206.204 354.433 206.165 354.914 206.211C355.393 206.256 355.849 206.256 356.881 206.301C357.703 206.337 359.135 206.316 360.007 206.286C360.878 206.257 361.146 206.197 361.97 206.166C362.794 206.136 364.166 206.136 364.977 206.151C365.997 206.169 367.106 206.226 368.565 206.241C369.34 206.249 370.508 206.316 371.998 206.301C373.819 206.226 376.149 206.196 376.448 206.151C376.658 206.136 376.986 206.136 377.324 206.136" stroke="#1E1E1E" stroke-width="2" stroke-linecap="round"/>
<path d="M42.5334 135.939C43.0974 135.888 44.023 135.683 45.1548 135.502C46.1275 135.476 46.9093 135.425 47.9067 135.347C48.7002 135.321 50.0769 135.321 51.4954 135.321" stroke="#1E1E1E" stroke-width="2" stroke-linecap="round"/>
<path d="M340.354 134.253C340.162 134.317 339.778 134.701 339.439 135.28C339.323 135.479 339.422 135.699 339.518 135.859C339.565 135.938 339.677 135.956 339.742 135.877C339.808 135.798 339.839 135.607 339.808 135.429C339.746 135.075 339.487 134.801 339.263 134.592C339.037 134.381 338.493 134.446 338.074 134.478C337.97 134.486 338.101 134.573 338.231 134.574C338.36 134.575 338.487 134.512 338.585 134.431C338.682 134.351 338.746 134.255 338.794 134.142C338.843 134.029 338.875 133.902 338.812 133.837C338.651 133.67 338.235 133.898 337.898 134.139C337.638 134.324 337.526 134.573 337.493 134.83C337.418 135.429 338.454 135.891 338.906 136.021C339.128 136.085 339.261 135.637 339.341 135.332C339.379 135.191 339.326 135.059 339.198 134.946C338.268 134.607 337.303 134.574 336.869 134.654C336.691 134.703 336.595 134.766 336.304 134.735" stroke="#1E1E1E" stroke-width="2" stroke-linecap="round"/>
<path d="M2.5686 205.286C2.5686 206.157 2.71353 208.061 2.82442 209.197C2.84973 209.457 2.93312 209.673 2.97045 212.357C3.00778 215.042 3.00778 220.187 2.97155 222.946C2.93532 225.705 2.86285 225.922 2.82552 227.23C2.78819 228.538 2.78819 230.929 2.78819 233.393" stroke="#1E1E1E" stroke-width="2" stroke-linecap="round"/>
<path d="M2.78825 234.271C2.78825 235.215 2.64332 237.266 2.60489 242.048C2.58855 244.082 2.93318 245.685 3.04407 248.424C3.13474 250.663 3.0825 253.151 2.9716 255.671C2.9081 257.114 2.64332 258.422 2.60489 261.707C2.5857 263.347 3.00784 267.104 2.64332 271.767C2.25698 276.709 2.34907 277.89 2.16681 279.679C1.74623 283.806 2.93318 284.553 2.89914 288.198C2.86975 291.346 2.34907 294.063 2.31284 295.599C2.29353 296.417 2.12948 300.403 2.09325 306.257C2.07218 309.661 1.76496 311.562 1.65407 316.633C1.60482 318.886 1.61564 320.785 1.72654 324.799C1.77766 326.65 1.98236 327.739 2.09215 331.151C2.19024 334.198 2.12948 339.924 2.16571 342.982C2.42153 346.771 2.56866 348.374 2.75092 349.989C2.78825 350.357 2.78825 350.719 2.78825 351.092" stroke="#1E1E1E" stroke-width="2" stroke-linecap="round"/>
<path d="M2.7162 351.158C2.7162 351.271 2.7162 352.747 2.68786 354.978C2.67531 355.967 2.54445 357.896 2.51611 360.671C2.50336 361.919 2.37269 362.943 2.34436 364.231C2.32963 364.9 2.20094 367.11 2.22928 370.287C2.25214 372.849 2.48605 375.485 2.57278 377.514C2.61427 378.485 3.0013 379.263 3.37314 380.152C3.66732 380.855 3.97341 381.554 4.77377 382.242C5.61813 382.968 6.49128 383.33 7.3217 383.789C8.1772 384.261 9.06755 384.763 9.9263 385.334C10.8534 385.95 11.6438 386.422 13.643 387.28C14.7634 387.76 15.5941 388.026 18.6195 388.113C20.1307 388.156 22.5053 388.428 24.0674 388.285C25.0418 388.196 25.8407 387.971 29.0387 387.941C31.3343 387.919 33.9714 387.971 36.2274 387.941C37.415 387.925 38.437 388.198 40.4585 388.399C46.5378 389.003 47.4814 388.256 48.4543 388.114C49.4667 387.965 50.2895 388.028 50.6888 387.913C51.1938 387.769 54.044 387.741 57.9934 387.712C59.3923 387.684 59.5623 387.627 59.7633 387.57C59.9642 387.512 60.1909 387.456 60.4245 387.397" stroke="#1E1E1E" stroke-width="2" stroke-linecap="round"/>
<path d="M60.3303 387.635C62.068 387.467 64.8921 387.127 67.0824 386.987C68.5897 386.89 71.4402 386.958 73.0189 386.986C74.5976 387.014 74.8209 387.07 76.667 387.098C78.513 387.127 81.9749 387.127 83.8979 387.155C86.726 387.196 87.8496 387.408 89.062 387.493C90.4473 387.591 91.9105 387.746 93.6567 387.832C94.7961 387.888 96.2489 388.085 98.6186 388.17C99.249 388.193 100.645 388.312 102.646 388.339C103.701 388.354 105.66 388.481 108.31 388.509C109.511 388.521 111.134 388.65 113.388 388.622C115.433 388.597 117.904 388.202 121.524 387.779C123.904 387.5 127.433 387.635 129.357 387.607C131.506 387.576 132.628 387.465 134.121 387.438C134.721 387.426 135 387.354 139.89 387.325C144.78 387.296 154.272 387.296 159.358 387.324C164.443 387.352 164.834 387.408 167.185 387.437C169.536 387.465 173.836 387.465 178.265 387.465" stroke="#1E1E1E" stroke-width="2" stroke-linecap="round"/>
<path d="M178.088 387.187C179.985 387.187 183.978 387.035 185.777 386.919C186.513 386.872 188.789 386.728 191.89 386.69C193.251 386.673 195.376 386.498 198.399 386.46C199.835 386.442 202.948 386.268 207.35 386.306C210.176 386.33 212.007 386.649 215.103 386.765C215.998 386.799 217.438 386.957 219.428 386.995C220.513 387.016 224.459 387.187 230.125 387.225C232.457 387.241 235.42 387.417 239.63 387.455C242.575 387.481 246.069 387.876 248.647 388.067C251.259 388.26 253.288 388.182 255.946 388.297C258.299 388.398 262.698 388.336 265.077 388.298C267.456 388.26 267.683 388.184 270.227 388.145C272.77 388.106 277.622 388.106 280.311 388.144C283 388.182 283.379 388.258 285.319 388.297C290.744 388.406 294.566 388.26 295.138 388.145C296.608 387.85 297.853 387.876 299.158 387.648C300.388 387.432 301.607 387.265 302.834 386.996C303.964 386.749 305.205 386.728 308.025 386.537C309.996 386.404 313.715 386.498 315.742 386.46C317.77 386.422 317.997 386.346 320.048 386.307C322.098 386.268 325.965 386.268 328.222 386.306C331.012 386.353 332.77 386.498 334.797 386.536C337.979 386.595 341.661 386.879 343.648 386.995C345.724 387.116 347.859 387.339 349.243 387.455C350.697 387.647 352.078 387.722 352.765 387.837C353.148 387.876 353.603 387.876 354.301 388.106" stroke="#1E1E1E" stroke-width="2" stroke-linecap="round"/>
<path d="M352.923 388.336C353.456 388.336 354.527 388.184 360.405 388.068C362.651 388.024 364.328 387.725 366.126 387.609C367.781 387.502 369.46 387.114 370.418 386.691C371.563 386.186 372.598 385.505 373.597 384.892C374.539 384.313 375.282 383.516 376.086 382.786C376.898 382.05 377.349 380.989 378.116 379.878C378.72 379.002 379.036 378.002 379.343 377.082C379.649 376.162 379.803 374.335 379.994 372.757C380.033 372.336 380.033 371.73 380.071 371.304C380.109 370.878 380.185 370.65 380.263 370.186" stroke="#1E1E1E" stroke-width="2" stroke-linecap="round"/>
<path d="M377.735 206.149C378.117 206.376 378.728 207.293 379.113 208.213C379.207 208.438 379.266 208.671 379.305 211.063C379.344 213.455 379.344 218.004 379.306 220.461C379.264 223.147 379.114 225.654 379.152 229.214C379.166 230.5 379.266 230.727 379.305 233.005C379.344 235.283 379.344 239.604 379.382 241.982C379.424 244.665 379.573 246.113 379.611 247.987C379.632 249.034 379.803 252.222 379.765 256.7C379.75 258.529 379.573 261.869 379.611 266.73C379.627 268.789 379.803 270.084 379.841 271.691C379.955 272.54 380.033 274.973 380.071 278.418C380.109 279.665 380.185 279.892 380.263 280.356" stroke="#1E1E1E" stroke-width="2" stroke-linecap="round"/>
<path d="M380.263 277.829C380.187 278.286 379.881 279.506 379.765 281.154C379.633 283.031 379.725 285.636 379.994 287.202C380.219 288.516 380.109 289.544 380.224 291.101C380.5 294.848 380.187 297.585 380.072 299.711C379.777 305.165 379.957 309.072 379.842 310.554C379.569 314.072 379.879 316.653 379.994 318.552C380.283 323.323 379.957 326.838 379.842 327.563C379.693 328.504 379.727 329.289 379.612 331.833C379.508 334.146 379.573 338.546 379.536 341C379.482 344.462 378.962 345.521 378.846 347.663C378.808 348.364 378.654 352.381 378.692 358.238C378.71 361.007 379.114 362.82 379.305 364.323C379.503 365.886 379.573 367.875 379.764 369.491C379.803 369.949 379.803 370.632 379.841 371.097C379.879 371.562 379.955 371.79 380.033 372.483" stroke="#1E1E1E" stroke-width="2" stroke-linecap="round"/>
<path d="M2.11276 11.4395C2.11276 13.8194 1.9226 18.6369 1.87218 25.3387C1.836 30.1477 1.9226 36.1147 1.7771 39.5664C1.66331 42.2659 1.34635 45.3347 1.20084 49.1207C1.14326 50.6189 0.960258 55.5747 1.0078 62.4393C1.04231 67.4224 1.43855 71.0759 1.58405 75.1947C1.61842 76.1677 1.72667 76.6425 1.77566 81.7842C1.82464 86.9258 1.82464 96.7192 1.7771 101.954C1.72956 107.19 1.63447 107.57 1.58549 109.43C1.44891 114.616 1.44143 118.427 1.29737 119.716C0.832627 123.875 1.53651 126.385 1.77566 128.841C2.12563 132.436 2.11276 136.452 2.35191 141.073C2.65685 146.967 2.30581 151.368 2.16175 152.754C1.74858 156.729 1.82464 160.372 1.58549 165.272C1.00835 177.096 2.30293 178.259 2.68758 179.413C3.07223 180.567 3.26527 181.717 3.50442 182.966C3.81309 184.578 3.84152 187.652 4.08067 190.261C4.40563 193.806 3.65136 194.97 3.50586 196.842C3.3596 198.723 3.07511 201.021 2.9296 202.653C2.88206 203.041 2.78698 203.326 2.738 203.853C2.68902 204.381 2.68902 205.141 2.68902 205.925" stroke="#1E1E1E" stroke-width="2" stroke-linecap="round"/>
<path d="M2.11267 11.4395C2.30283 10.8661 3.06925 9.71651 3.88609 8.6101C4.73757 7.45678 5.95052 6.54712 7.0065 5.67986C8.07825 4.79965 9.50024 3.95398 10.8948 3.27832C12.7914 2.3594 13.9201 1.74117 15.3132 1.35652C18.0451 0.602201 22.5639 1.25711 23.7178 1.40262C25.2587 1.5969 27.1739 1.83337 28.8062 1.97887C29.4912 2.03994 33.1007 2.21946 38.2855 2.17192C40.143 2.15488 40.4277 2.02929 46.7075 1.98031C52.9872 1.93133 65.2527 1.93133 71.714 1.97887C78.4618 2.02852 79.2297 2.31454 81.6615 2.4586C87.0317 2.77674 90.8528 2.4125 91.9505 2.26844C94.0765 1.98944 95.7509 2.12437 99.9389 1.98031C103.84 1.84613 111.353 1.93133 115.365 1.88379C119.377 1.83625 119.663 1.74117 121.854 1.69218C128.132 1.55184 132.726 1.73829 133.873 1.88235C135.766 2.12018 137.336 2.02641 142.429 2.17048C147.14 2.30373 156.174 2.21946 161.16 2.17192C166.813 2.11801 169.589 1.93133 172.949 1.88379C174.217 1.86584 174.597 1.74117 177.265 1.69218C179.933 1.6432 184.877 1.6432 187.614 1.59566C192.84 1.5049 196.69 1.26 201.212 1.11593C205.352 0.984042 213.246 1.06695 217.454 1.11449C222.627 1.17293 224.535 1.54524 227.034 1.69074C229.444 1.83101 231.744 2.02641 235.889 2.17048C239.461 2.29465 246.023 2.21946 249.546 2.17192C253.356 2.12049 255.549 1.93133 258.668 1.88379C262.474 1.82577 266.034 1.54812 272.361 1.40406C278.402 1.26652 290.193 1.35508 296.457 1.40262C303.972 1.45965 306.075 1.83337 309.436 1.97887C311.469 2.06691 313.762 2.40962 316.449 2.55512C317.328 2.60273 322.08 2.79571 328.994 2.74817C333.545 2.71687 337.198 2.31742 340.313 2.17192C341.042 2.13783 341.422 2.02929 345.279 1.98031C349.135 1.93133 356.456 1.93133 360.371 1.88379C365.435 1.6432 366.973 1.54812 368.12 1.40406C368.886 1.35508 370.027 1.35508 371.491 1.06695" stroke="#1E1E1E" stroke-width="2" stroke-linecap="round"/>
<path d="M370.627 1.35507C371.2 1.35507 372.35 1.7354 373.504 2.45716C374.545 3.10885 375.519 4.23058 376.386 5.38452C377.252 6.53709 378.02 7.68809 378.691 8.84204C379.363 9.99724 379.749 11.3358 380.133 12.8268C381.267 17.2229 380.233 25.2638 380.087 26.4653C379.917 27.8702 379.656 29.1996 379.511 30.4515C379.375 31.6224 379.08 32.7551 378.935 34.1957C378.702 36.4958 378.504 39.382 378.454 41.2534C378.434 41.9888 378.789 42.6494 378.933 52.1633C379.072 61.296 378.982 79.1723 378.935 88.5235C378.887 97.8746 378.792 98.1598 378.743 99.733C378.605 104.157 378.599 107.383 378.455 110.144C378.326 112.618 378.406 117.28 378.454 119.918C378.501 122.556 378.596 123.031 378.645 125.748C378.694 128.465 378.694 133.409 378.742 136.146C378.796 139.267 378.982 143.459 379.03 149.412C379.047 151.562 379.172 151.942 379.221 157.177C379.27 162.412 379.27 172.491 379.223 177.825C379.173 183.447 378.982 186.306 378.935 190.481C378.887 192.089 378.792 192.66 378.743 195.235C378.694 197.811 378.694 202.375 378.694 207.077" stroke="#1E1E1E" stroke-width="2" stroke-linecap="round"/>
<path d="M377.066 180.175C377.089 180.175 377.112 180.175 377.309 180.175C377.505 180.175 377.875 180.175 378.327 180.105" stroke="#1E1E1E" stroke-width="2" stroke-linecap="round"/>
<path d="M3.60339 180.313C3.71294 180.313 3.93368 180.313 4.2648 180.341C4.59591 180.423 4.92952 180.534 5.56188 180.617C6.02992 180.645 6.79672 180.645 7.58675 180.645" stroke="#1E1E1E" stroke-width="2" stroke-linecap="round"/>
<path d="M94.78 15.1154C95.2774 15.1154 96.4179 14.9739 97.7396 14.8302C99.7985 14.6065 100.778 14.3307 101.815 14.2225C102.288 14.173 105.752 14.0435 110.824 14.0788C113.718 14.099 115.142 14.3993 116.179 14.5076C117.294 14.6241 118.572 14.8281 120.854 14.9364C122.789 15.0281 125.642 15.2569 127.609 15.3651C128.227 15.3991 130.914 15.5441 134.772 15.5088C136.154 15.4961 136.366 15.4026 142.701 15.3662C149.036 15.3298 161.487 15.3298 168.078 15.2944C175.024 15.2571 176.661 15.1154 178.696 15.08C179.459 15.0667 179.671 14.9739 183.883 14.9374C188.096 14.901 196.302 14.901 200.813 14.9364C205.891 14.9762 207.817 15.1154 209.96 15.1507C210.759 15.1639 210.97 15.2569 214.582 15.2933C218.193 15.3298 225.197 15.3298 228.946 15.3651C232.98 15.4032 235.322 15.5441 238.537 15.5088C239.916 15.4936 241.687 15.3298 244.151 15.2944C245.276 15.2782 248.674 15.1154 254.099 15.1861C256.341 15.2154 257.543 15.3984 262.089 15.4712C266.635 15.5441 274.487 15.5441 278.674 15.5088C284.075 15.4631 285.79 15.1883 286.826 15.08C287.872 14.9707 289.005 14.7595 289.899 15.006C291.169 15.3561 291.08 16.8261 291.367 17.8627C291.741 19.2188 291.441 21.1138 291.332 25.887C291.288 27.8381 291.012 29.4017 290.904 30.5465C290.654 31.6206 290.51 33.3249 290.332 35.1172C290.296 35.6874 290.296 36.5364 290.51 37.411" stroke="#1E1E1E" stroke-width="2" stroke-linecap="round"/>
<path d="M290.753 36.6077C290.753 36.7774 290.753 37.0345 290.732 37.3764C290.71 37.7235 290.624 40.1838 290.603 43.7606C290.592 45.65 290.411 46.246 290.346 46.9955C290.28 47.7581 290.11 48.5162 290.003 49.1595C289.828 50.2184 289.853 51.5961 289.746 52.6714C289.568 54.4666 289.596 55.3265 289.489 56.2713C289.408 56.9908 289.425 57.6442 289.361 59.5139C289.304 61.1707 289.339 64.2681 289.36 65.9482C289.383 67.799 289.467 68.7788 289.489 70.106C289.5 70.8421 289.596 71.8215 289.617 73.0632C289.628 73.7141 289.724 74.9464 289.746 76.6381C289.768 78.3805 289.895 80.1397 289.96 82.4548C290.018 84.5571 289.982 88.5453 289.96 90.7055C289.939 92.8657 289.897 93.0778 289.875 96.4958C289.853 99.9139 289.853 106.531 289.832 110.131C289.811 113.731 289.768 114.113 289.725 117.703C289.682 121.294 289.64 128.081 289.639 131.726C289.638 135.371 289.681 135.668 289.703 136.626C289.724 137.585 289.724 139.197 289.746 140.134C289.767 141.07 289.809 141.282 289.852 143.555C289.895 145.828 289.938 150.155 289.938 153.72C289.939 157.285 289.897 159.958 289.896 161.398C289.895 163.274 290.323 163.95 290.474 164.89C290.86 167.307 290.154 167.85 289.812 168.386C289.379 169.066 288.614 169.095 287.821 169.373C287.128 169.616 286.344 169.737 285.486 169.802C284.617 169.868 281.991 170.038 280.343 169.91C279.638 169.855 278.803 169.568 277.944 169.503C277.638 169.48 276.24 169.395 274.227 169.417C273.315 169.426 271.573 169.524 269.046 169.545C266.977 169.652 265.731 169.695 263.544 169.759C261.568 169.781 257.835 169.781 253.989 169.652" stroke="#1E1E1E" stroke-width="2" stroke-linecap="round"/>
<path d="M253.788 169.781C253.282 169.781 252.192 169.849 251.325 169.9C251.135 169.912 251.035 169.951 249.905 169.968C248.775 169.985 246.62 169.985 245.459 170.002C244.196 170.021 242.847 170.02 240.891 169.901C240.045 169.85 238.73 169.781 236.792 169.765C234.676 169.746 232.971 169.646 231.738 169.611C230.709 169.583 228.856 169.645 227.834 169.679C226.677 169.718 225.967 169.781 224.981 169.798C224.331 169.809 222.945 169.883 221.126 169.867C220.452 169.86 220.283 169.816 219.287 169.799C218.291 169.781 216.473 169.781 215.384 169.765C214.296 169.748 213.993 169.714 210.789 169.663C207.585 169.612 201.489 169.545 198.214 169.493C194.939 169.442 194.669 169.408 194.228 169.39C192.387 169.318 191.64 169.271 190.688 169.186C190.114 169.135 189.564 169.135 188.398 169.084C185.854 168.973 184.018 169.101 183.46 169.152C182.468 169.242 181.738 169.203 181.316 169.254C180.461 169.357 179.765 169.305 178.096 169.356C176.562 169.403 173.632 169.373 172.021 169.39C169.562 169.416 168.472 169.543 167.691 169.594C166.771 169.655 165.818 169.713 164.334 169.764C163.051 169.808 160.693 169.781 159.159 169.748C156.086 169.68 155.274 169.51 154.102 169.458C153.777 169.444 153.474 169.408 152.324 169.39C151.175 169.373 149.188 169.373 148.113 169.39C147.039 169.407 146.938 169.44 144.815 169.458C142.692 169.475 138.549 169.475 134.281 169.475" stroke="#1E1E1E" stroke-width="2" stroke-linecap="round"/>
<path d="M134.129 169.52C133.532 169.52 132.444 169.56 131.091 169.62C129.859 169.675 127.513 169.641 126.226 169.621C124.414 169.593 123.457 169.441 122.272 169.38C121.323 169.331 120.444 169.2 118.182 169.179C117.472 169.172 116.674 169.279 115.691 169.299C115.142 169.31 113.789 169.4 111.904 169.38C111.049 169.371 109.695 169.279 107.809 169.259C107.115 169.252 106.957 169.2 105.384 169.179C103.812 169.159 100.832 169.159 99.2169 169.179C97.4422 169.201 96.2858 169.279 94.7208 169.259C93.6247 169.246 92.826 169.079 92.204 168.919C91.828 168.821 91.5001 168.758 91.2996 168.638C90.883 168.389 90.9377 167.716 90.7571 167.234C90.5322 166.634 90.456 165.91 90.3952 164.428C90.3768 163.979 90.2946 162.112 90.3145 159.403C90.3254 157.911 90.8149 157.039 91.0166 156.496C91.2404 155.893 91.258 153.246 91.1382 151.599C91.095 151.006 90.9377 150.375 90.8769 146.095C90.8544 144.513 90.6968 143.231 90.636 141.668C90.5952 140.619 90.456 139.416 90.3952 137.715C90.3527 136.525 90.3741 135.322 90.4349 134.32C90.484 133.511 90.615 132.793 90.6758 132.291C90.761 131.587 90.8558 130.866 90.9166 129.365C90.9372 128.857 91.0172 128.259 91.037 127.517C91.0496 127.05 91.1376 124.823 91.1177 121.613C91.1072 119.905 90.9377 119.185 90.8769 118.303C90.824 117.535 90.6174 116.259 90.5156 114.452C90.4609 113.482 90.3356 112.603 90.2748 111.979C90.2059 111.274 90.0947 110.315 90.0339 109.292C90.0133 108.944 89.9333 107.316 89.9532 104.968C89.9661 103.448 90.1333 102.246 90.1941 100.304C90.24 98.8354 90.3344 97.2268 90.3946 94.8599C90.4507 92.6525 90.415 88.3997 90.3952 86.1297C90.2946 82.7421 90.2549 80.9298 90.1947 80.3306C90.1742 79.9302 90.1742 79.3341 90.1742 78.72" stroke="#1E1E1E" stroke-width="2" stroke-linecap="round"/>
<path d="M95.06 14.8468C94.8342 14.8468 94.3238 14.7906 92.7513 14.7897C92.0851 14.7893 91.7949 15.4415 91.4967 15.7828C91.2317 16.086 91.1133 16.464 90.9706 16.8052C90.7937 17.228 90.5731 17.7421 90.4734 18.0974C90.3614 18.4965 90.3175 18.9622 90.2744 19.5735C90.2372 20.1023 90.1471 20.7242 90.104 22.2677C90.0924 22.6859 90.0329 23.5863 90.0469 24.878C90.0614 26.2031 90.1743 27.6259 90.2173 28.4622C90.2315 28.7364 90.2885 29.5796 90.2744 30.7721C90.2683 31.2914 90.2033 32.7262 90.2173 34.8274C90.2231 35.6924 90.2885 36.454 90.3026 37.4901C90.3078 37.8797 90.3447 37.9919 90.3592 39.1886C90.3737 40.3853 90.3737 42.6629 90.3878 43.8783C90.4018 45.0938 90.4299 45.1781 90.4444 46.2619C90.4589 47.3458 90.4589 49.4265 90.4448 50.5546C90.4294 51.7958 90.3737 52.7546 90.3596 54.0889C90.3533 54.6936 90.2885 55.8203 90.2744 57.3961C90.2694 57.9599 90.2323 58.0441 90.2178 59.0576C90.2033 60.0712 90.2033 62.0113 90.1892 63.081C90.1733 64.292 90.1181 65.2235 90.1321 66.4586C90.1405 67.1935 90.2595 67.5871 90.3026 68.0131C90.3516 68.499 90.4299 68.9504 90.473 69.9281C90.5001 70.5438 90.6003 71.1657 90.6434 73.0062C90.67 74.1464 90.6583 75.3408 90.6153 75.682C90.5682 76.0552 90.4879 76.4484 90.4448 77.0019C90.4308 77.1309 90.4027 77.2153 90.3882 77.5118C90.3737 77.8083 90.3737 78.3144 90.2885 78.9211" stroke="#1E1E1E" stroke-width="2" stroke-linecap="round"/>
<path d="M99.028 217.742C99.1421 217.742 100.285 217.742 102.013 217.714C102.833 217.7 105.686 217.569 109.863 217.541C111.359 217.53 111.587 217.455 113.445 217.426C115.303 217.396 118.783 217.396 120.719 217.425C122.654 217.453 122.94 217.51 124.37 217.54C128.368 217.622 131.299 217.626 132.017 217.713C133.825 217.93 135.212 217.915 136.598 218.058C139.297 218.338 140.458 217.915 141.957 218.058C143.608 218.216 144.958 218.031 146.047 217.944C148.156 217.777 149.856 217.972 151.145 218.058C153.627 218.225 155.391 218.145 156.42 218.231C158.811 218.432 160.578 218.318 162.092 218.404C165.94 218.624 168.704 218.491 169.819 218.577C174.51 218.941 176.701 218.434 178.24 218.147C179.24 217.96 180.169 217.801 181.266 217.57C182.075 217.4 182.709 217.339 186.848 217.253C190.815 217.17 198.576 217.223 202.659 217.252C207.433 217.285 208.811 217.624 210.828 217.771C211.413 217.813 212.041 217.972 213.617 218.058C216.501 218.217 218.67 218.145 220.501 218.231C221.988 218.302 224.614 218.261 226.137 218.289C227.66 218.318 228.003 218.375 231.374 218.404C234.746 218.434 241.136 218.434 244.571 218.405C248.291 218.374 249.84 218.261 251.856 218.232C253.94 218.203 256.016 218.145 258.617 218.231C260.875 218.306 265.041 218.261 267.272 218.232C269.675 218.147 270.421 218.088 271.372 218.059C271.751 218.031 271.922 217.974 272.271 217.915" stroke="#1E1E1E" stroke-width="2" stroke-linecap="round"/>
<path d="M272.397 217.929C272.671 217.929 274.215 217.929 276.426 217.946C277.96 217.958 278.858 217.999 280.366 217.947C281.735 217.9 284.336 217.929 285.727 217.946C287.636 217.97 288.533 218.101 289.155 218.154C289.62 218.193 290.02 218.481 290.332 218.861C290.637 219.232 290.712 219.69 290.833 220.156C291.004 220.811 290.955 221.518 291.058 222.109C291.219 223.031 291.23 224.216 291.249 226.043C291.253 226.535 291.162 227.493 291.145 228.84C291.137 229.437 291.058 230.977 291.041 233.206C291.03 234.721 290.886 235.966 290.834 236.984C290.788 237.867 290.679 238.973 290.299 240.868C290.134 241.693 290.125 242.46 290.039 243.444C289.909 244.928 290.056 246.126 290.108 246.54C290.159 246.95 290.228 247.712 290.383 249.174C290.614 251.343 290.471 252.865 290.522 254.014C290.64 256.631 290.506 258.498 290.454 258.825C290.387 259.25 290.402 259.638 290.35 260.735C290.305 261.694 290.333 263.474 290.316 264.442C290.298 265.41 290.264 265.512 290.247 266.506C290.229 267.5 290.229 269.381 290.246 270.436C290.272 272.046 290.401 272.803 290.522 274.725C290.619 276.263 290.54 279.243 290.523 280.827C290.505 282.515 290.436 282.86 290.419 283.291C290.406 283.623 290.333 284.753 290.316 286.342C290.307 287.111 290.229 288.175 290.212 289.591C290.196 290.912 290.091 292.122 290.039 293.459C289.994 294.624 290.022 296.78 290.039 297.993C290.056 299.206 290.09 299.411 290.108 300.458C290.125 301.504 290.125 303.386 290.142 304.406C290.169 306.014 290.263 306.947 290.315 308.814C290.362 310.509 290.333 313.726 290.316 315.451C290.298 317.176 290.264 317.313 290.247 318.307C290.229 319.301 290.229 321.149 290.333 323.052" stroke="#1E1E1E" stroke-width="2" stroke-linecap="round"/>
<path d="M290.159 322.713C290.159 322.947 290.237 323.493 290.296 324.394C290.34 325.066 290.549 325.921 290.648 326.472C290.857 327.626 290.669 329.604 290.551 330.386C290.271 332.251 290.081 332.7 289.944 333.268C289.828 333.748 289.806 334.305 289.709 335.399C289.489 337.862 289.884 338.341 290.041 338.909C290.112 339.166 290.159 341.184 290.14 344.121C290.129 345.747 289.964 346.763 289.905 347.78C289.847 348.763 289.729 349.858 289.728 352.572C289.727 353.599 290.001 354.284 290.061 356.804C290.08 357.614 290.159 359.248 290.14 361.422C290.133 362.2 290.081 362.316 290.061 363.927C290.041 365.538 290.041 368.641 290.022 370.317C290.001 372.149 289.885 372.424 289.749 372.658C289.342 373.358 287.816 373.248 286.62 373.345C284.174 373.545 283.232 373.248 281.978 373.15C279.045 372.922 277.709 373.013 276.608 372.915C275.59 372.825 274.188 372.778 271.701 372.973C269.045 373.181 267.127 372.974 266.697 372.915C266.347 372.867 266.029 372.856 264.689 372.798C263.504 372.746 261.293 372.778 260.076 372.758C258.704 372.736 256.916 372.66 254.351 372.641C252.089 372.624 249.658 372.465 248.715 372.406C247.542 372.332 245.972 372.269 244.224 372.21C242.708 372.159 239.915 372.19 238.419 372.209C236.805 372.23 235.134 372.308 232.668 372.327C231.752 372.334 231.519 372.385 229.267 372.405C227.014 372.425 222.747 372.425 220.472 372.406C218.197 372.386 218.042 372.347 217.283 372.328C215.168 372.272 213.575 372.346 213.126 372.405C211.939 372.56 210.06 372.543 208.972 372.64C208.326 372.698 206.844 372.778 205.489 372.875C204.498 372.946 203.703 372.934 202.517 372.993C199.744 373.13 197.67 372.974 197.221 372.915C196.383 372.806 195.517 372.778 194.869 372.68C194.266 372.589 193.324 372.543 191.895 372.347C190.704 372.185 189.524 372.072 187.594 371.975C186.332 371.911 184.042 371.955 182.786 371.974C180.902 372.003 179.654 372.15 178.476 372.209C177.031 372.282 174.988 372.346 173.278 372.405C171.802 372.456 169.086 372.425 167.61 372.444C166.134 372.464 165.979 372.503 164.503 372.523C163.027 372.543 160.234 372.543 158.699 372.562C157.164 372.581 156.97 372.62 155.047 372.64C153.124 372.66 149.479 372.66 147.465 372.679C145.179 372.702 144.241 372.778 143.106 372.797C141.146 372.831 139.026 372.818 137.561 372.758C136.796 372.727 136.012 372.66 135.23 372.641C134.6 372.625 132.5 372.581 129.661 372.66C127.899 372.708 126.842 372.816 124.978 372.856C123.308 372.891 120.166 372.818 118.043 372.759C114.911 372.672 113.68 372.504 113.056 372.445C111.972 372.343 110.978 372.386 110.12 372.328C108.8 372.237 107.881 372.269 105.727 372.249C103.689 372.23 99.7333 372.345 97.5985 372.404C95.4637 372.464 95.2698 372.503 95.0923 372.542C94.9149 372.581 94.7597 372.62 94.3649 372.66" stroke="#1E1E1E" stroke-width="2" stroke-linecap="round"/>
<path d="M94.1759 372.664C94.0975 372.677 93.9404 372.729 93.3776 372.71C92.8834 372.693 92.7589 372.454 92.5947 372.349C92.3814 372.213 92.1162 371.983 91.7356 371.608C91.5518 371.428 91.4065 371.286 91.1314 370.991C90.9479 370.795 90.8685 370.617 90.7827 370.459C90.6775 370.266 90.6055 370 90.5856 369.731C90.5685 369.499 90.5787 369.212 90.5986 369.035C90.6244 368.804 90.6575 368.569 90.6773 368.052C90.6993 367.482 90.7362 366.613 90.7823 366.364C90.8255 366.13 90.8544 365.97 90.9461 365.707C91.03 365.468 91.1167 365.235 91.2283 365.012C91.4288 364.611 91.3144 364.316 91.1507 363.838C90.993 363.376 90.9859 363.187 90.9532 363.003C90.9117 362.769 90.9071 362.05 90.9006 361.092C90.8983 360.745 90.8812 360.68 90.8745 360.295C90.8678 359.911 90.8678 359.209 90.8613 358.815C90.8537 358.356 90.8284 358.094 90.8219 357.766C90.8091 357.124 90.763 356.204 90.7431 355.966C90.7342 355.86 90.7102 355.717 90.6388 355.157C90.5787 354.686 90.4243 353.843 90.3507 353.076C90.277 352.31 90.277 351.647 90.2835 351.26C90.2916 350.782 90.3164 350.61 90.3424 350.323C90.4344 349.307 90.4999 348.97 90.5263 348.511C90.5347 348.366 90.5653 348.21 90.6567 346.272C90.748 344.333 90.904 340.616 90.9778 338.662C91.0517 336.708 91.0387 336.63 91.032 336.428C91.0146 335.9 91.0123 335.475 90.9926 334.843C90.9758 334.302 90.9859 333.314 90.9794 332.786C90.9599 332.219 90.9465 332.127 90.927 331.95C90.9075 331.826 90.8685 331.631 90.789 331.352" stroke="#1E1E1E" stroke-width="2" stroke-linecap="round"/>
<path d="M99.2741 217.765C97.8648 217.765 95.0106 217.671 94.3231 217.669C93.6431 217.668 93.1619 218.285 92.5924 218.498C91.9857 218.726 91.4554 219.09 91.1454 219.611C90.8142 220.168 90.7415 220.842 90.6234 221.507C90.4818 222.305 90.4571 223.82 90.5751 225.155C90.7048 226.623 90.7415 227.665 90.6234 228.57C90.5187 229.372 90.4571 230.322 90.339 231.106C90.25 231.697 90.1726 232.549 90.4087 233.759C90.578 234.627 90.5993 235.959 90.7173 237.899C90.8913 240.76 90.6946 242.792 90.6234 243.662C90.457 245.699 90.5523 247.201 90.4812 248.587C90.4174 249.832 90.4571 252.179 90.4805 253.529C90.504 254.879 90.5509 255.16 90.5751 257.182C90.5993 259.205 90.5993 262.959 90.5758 265.01C90.5523 267.062 90.5054 267.296 90.4812 269.224C90.4571 271.152 90.4571 274.765 90.4805 276.697C90.5057 278.771 90.5993 280.417 90.5758 282.786C90.5555 284.836 90.3632 286.734 90.2914 287.445C90.2001 288.348 89.8911 290.514 89.7225 292.444C89.6787 292.946 89.6038 294.215 89.5803 295.968C89.5681 296.879 89.4616 298.526 89.4851 300.753C89.5042 302.567 89.6977 304.083 89.7695 307.486C89.8037 309.109 89.9821 310.625 90.0539 312.209C90.1282 313.847 90.2665 315.648 90.3383 318.108C90.3593 318.828 90.4571 320.614 90.4336 323.125C90.4096 325.692 90.5026 328.544 90.7173 329.184C90.7415 329.678 90.7884 330.109 90.8595 330.463C90.8837 330.677 90.8837 330.958 90.7415 331.533" stroke="#1E1E1E" stroke-width="2" stroke-linecap="round"/>
<path d="M2.61462 182.791C2.61462 183.017 2.64924 183.472 2.67573 184.031C2.69004 184.332 2.75415 184.608 2.81552 184.932C2.86637 185.2 2.87689 186.452 2.83335 187.439C2.79672 188.27 2.80712 188.91 2.7809 189.145C2.74138 189.499 2.75467 189.802 2.72845 190.426C2.70587 190.964 2.71953 191.951 2.72818 192.494C2.73795 193.106 2.78929 193.298 2.81552 193.767C2.90353 195.342 2.77198 195.727 2.72845 196.017C2.69056 196.27 2.66708 197.104 2.71927 197.635C2.73684 197.687 2.75415 197.739 2.80634 197.766C2.85853 197.793 2.94507 197.793 3.03424 197.793" stroke="#1E1E1E" stroke-width="2" stroke-linecap="round"/>
</svg>
